<?xml version="1.0" standalone="no"?>
<!DOCTYPE svg PUBLIC "-//W3C//DTD SVG 20010904//EN"
 "http://www.w3.org/TR/2001/REC-SVG-20010904/DTD/svg10.dtd">
<svg version="1.0" xmlns="http://www.w3.org/2000/svg"
 width="902.000000pt" height="600.000000pt" viewBox="0 0 902.000000 600.000000"
 preserveAspectRatio="xMidYMid meet">

<g transform="translate(0.000000,600.000000) scale(0.100000,-0.100000)"
fill="#000000" stroke="none">
<path d="M0 5623 l0 -378 38 0 c41 -1 112 -47 133 -86 16 -30 26 -461 12 -519
-9 -35 -51 -96 -79 -115 -13 -8 -24 -20 -24 -25 0 -20 42 -9 91 24 66 46 89
53 102 31 5 -9 17 -25 26 -34 25 -25 105 -140 125 -178 13 -27 17 -76 20 -280
4 -291 -4 -337 -73 -426 -22 -30 -41 -61 -41 -70 0 -19 -35 -41 -50 -32 -6 3
-10 13 -10 22 0 12 -8 14 -38 10 -37 -6 -44 -13 -115 -101 -47 -58 -90 -102
-105 -107 -10 -3 -12 -64 -10 -279 l3 -275 30 49 c44 73 102 126 135 126 19 0
36 9 48 25 17 22 19 31 10 63 -6 20 -8 75 -6 122 3 74 9 97 45 174 52 112 96
176 122 176 37 0 140 80 170 132 l29 50 14 -28 c8 -17 23 -30 37 -32 25 -4 82
16 93 32 12 17 9 66 -3 66 -23 0 -38 36 -39 88 0 60 13 92 37 92 9 0 24 7 33
15 10 9 34 19 55 22 33 5 41 2 65 -25 22 -25 36 -32 66 -32 20 0 45 7 55 16
10 9 25 14 34 11 19 -8 19 -43 0 -97 -8 -23 -15 -56 -15 -72 0 -16 -9 -41 -20
-55 -25 -32 -25 -39 0 -46 12 -3 20 -14 20 -26 0 -33 23 -25 71 27 92 97 242
181 327 182 12 0 22 3 22 7 0 23 -31 88 -72 152 -53 82 -63 112 -73 221 -4 41
-16 90 -26 110 -22 40 -24 87 -7 127 14 31 22 41 86 111 24 26 59 76 78 112
19 36 44 75 57 87 135 131 154 157 171 236 4 16 17 32 31 39 14 6 25 17 25 24
0 7 9 18 20 24 11 6 20 8 20 4 0 -3 7 0 16 7 10 8 52 15 111 17 80 4 101 8
133 29 21 14 44 36 51 49 12 23 9 28 -43 82 -62 63 -72 80 -82 133 -5 31 -12
38 -46 49 l-39 13 -55 -58 c-54 -58 -55 -58 -107 -56 -30 1 -58 6 -63 11 -9 9
3 14 26 11 3 0 4 13 1 29 -2 17 0 30 6 30 6 0 11 -5 11 -10 0 -6 10 -2 22 10
12 11 25 20 29 20 14 0 16 52 3 90 -8 22 -11 52 -8 68 4 17 1 32 -5 36 -6 4
-11 24 -11 46 0 28 7 46 29 69 16 17 34 31 40 31 7 0 34 -22 61 -50 47 -46 50
-52 50 -100 0 -44 3 -51 18 -48 13 2 18 15 20 55 2 39 9 57 29 77 14 15 32 36
38 49 55 98 75 142 75 168 l0 29 -392 -1 -393 0 50 -23 c55 -25 119 -82 130
-115 3 -11 15 -21 25 -21 10 0 31 -7 46 -15 16 -8 43 -15 60 -15 20 0 34 -6
38 -16 11 -29 6 -44 -14 -44 -26 0 -35 -39 -20 -86 15 -43 12 -173 -4 -241 -8
-33 -39 -57 -121 -98 -22 -10 -51 -27 -64 -37 -13 -10 -30 -18 -38 -18 -8 0
-39 -12 -68 -26 -87 -41 -187 -57 -281 -45 -43 5 -99 14 -124 20 -141 34 -149
32 -193 -62 -48 -99 -155 -197 -217 -197 -11 0 -20 -6 -20 -14 0 -8 -14 -15
-35 -18 -27 -3 -40 1 -55 17 -11 12 -20 27 -20 35 0 8 -10 24 -22 37 -19 21
-20 27 -11 70 9 38 8 53 -4 77 -9 16 -13 41 -9 57 4 22 1 29 -14 34 -23 7 -43
65 -44 126 0 32 8 60 27 91 25 44 94 108 115 108 5 0 15 6 21 14 16 19 114 66
138 66 30 0 51 -22 55 -55 3 -33 26 -42 82 -31 32 7 41 18 135 170 91 148 122
176 281 244 19 8 -39 11 -231 11 l-255 1 2 -41 c1 -22 -7 -64 -17 -92 -11 -29
-19 -62 -19 -74 0 -28 -30 -44 -133 -68 -74 -18 -79 -18 -88 -2 -6 9 -17 17
-24 17 -8 0 -24 9 -35 20 -21 21 -18 39 12 72 107 115 138 145 163 155 24 9
-18 12 -222 12 l-253 1 0 -377z m876 -988 c-1 -8 -5 -17 -9 -21 -4 -4 -4 -18
0 -32 4 -17 2 -23 -6 -18 -6 4 -11 12 -11 18 0 6 -8 16 -17 23 -15 11 -15 17
-5 39 10 22 15 25 31 16 11 -5 18 -16 17 -25z m121 -532 c5 -13 -53 -63 -73
-63 -23 0 -18 56 7 74 22 15 60 9 66 -11z"/>
<path d="M4154 5978 c1 -28 13 -38 48 -38 18 0 31 -8 39 -22 18 -34 21 -161 4
-207 -7 -22 -11 -42 -8 -45 3 -3 -4 -17 -16 -32 -21 -27 -28 -54 -13 -54 4 0
23 -16 42 -35 19 -19 42 -34 50 -35 13 0 13 2 1 9 -8 5 -11 16 -8 26 4 9 11
13 17 10 5 -3 10 -1 10 4 0 6 9 11 20 11 22 0 27 9 33 55 2 19 10 31 22 33 24
5 34 -14 29 -54 -6 -52 42 -89 101 -78 41 7 118 -24 135 -56 6 -11 34 -32 63
-46 29 -14 66 -37 83 -49 30 -23 32 -23 57 -7 14 10 35 30 47 45 12 15 27 27
35 27 7 0 15 4 17 9 2 5 21 17 42 27 22 11 41 24 43 31 5 14 -55 78 -82 87
-23 8 -72 74 -81 111 -3 14 -10 28 -15 31 -5 3 -9 41 -9 84 0 69 3 82 23 102
12 13 33 35 46 51 l24 27 -400 0 -400 0 1 -22z"/>
<path d="M5022 5986 c16 -7 48 -31 72 -54 42 -40 47 -42 104 -42 34 0 64 -5
67 -10 4 -6 10 -8 15 -5 11 7 53 -18 93 -54 15 -13 27 -22 27 -18 0 3 14 -7
30 -23 17 -16 30 -32 30 -36 0 -4 11 -16 23 -28 21 -19 25 -35 30 -121 4 -54
11 -103 17 -109 5 -5 10 -21 10 -34 0 -32 49 -76 103 -95 47 -16 53 -14 118
30 34 23 41 23 154 18 164 -8 239 -27 275 -70 13 -16 53 -37 75 -40 6 -1 36
-5 68 -9 31 -5 60 -12 63 -17 3 -5 22 -9 43 -9 31 0 52 -10 101 -47 119 -90
123 -93 162 -93 21 0 38 -4 38 -9 0 -4 27 -21 61 -36 44 -20 87 -29 158 -35
l96 -9 75 79 c88 91 113 104 190 95 67 -8 123 -33 170 -75 132 -118 181 -185
222 -305 24 -69 28 -95 28 -197 0 -64 -4 -119 -9 -122 -4 -3 -14 -27 -21 -53
-7 -27 -19 -57 -27 -68 -15 -23 -17 -78 -3 -105 8 -15 32 -28 80 -45 3 -1 17
-7 33 -15 22 -11 31 -11 51 0 14 7 31 10 39 7 8 -3 32 7 53 23 48 35 99 49
143 39 34 -7 54 -26 44 -41 -2 -5 3 -21 14 -36 31 -47 42 -66 72 -127 17 -33
30 -57 31 -52 0 4 11 0 25 -9 20 -13 23 -21 18 -47 -3 -18 -13 -42 -21 -55
l-14 -22 -19 21 c-19 22 -23 33 -20 56 2 13 -29 11 -114 -6 -73 -15 -115 -30
-115 -42 0 -16 -64 -49 -92 -49 -24 0 -28 -4 -28 -29 0 -18 -6 -31 -15 -33
-13 -3 -13 -7 -1 -30 8 -14 33 -73 57 -130 40 -97 43 -109 45 -208 l2 -105
-44 -77 c-46 -80 -58 -138 -29 -138 9 0 30 -7 47 -16 30 -15 30 -16 11 -34
-11 -10 -34 -25 -51 -34 -32 -17 -43 -39 -45 -98 -2 -31 1 -34 43 -48 25 -8
50 -18 55 -21 6 -4 24 -10 42 -13 26 -6 34 -15 47 -53 9 -26 16 -54 16 -64 0
-10 6 -20 13 -22 10 -4 10 -6 0 -6 -19 -1 -16 -31 2 -31 22 0 62 -46 86 -97
11 -24 31 -55 44 -69 43 -47 61 -160 36 -226 -17 -45 22 -146 63 -164 16 -7
22 -21 26 -54 4 -40 8 -45 31 -48 29 -3 45 -42 26 -61 -6 -6 -2 -13 11 -20 15
-8 23 -7 32 4 8 10 9 15 2 15 -22 0 -5 113 27 182 17 37 31 81 31 97 0 16 5
42 10 57 15 40 21 97 11 113 -8 13 9 37 82 113 25 27 21 35 -20 42 -21 3 -47
13 -58 21 -19 15 -19 16 13 46 17 16 32 36 32 44 0 8 9 30 21 49 20 34 51 47
63 27 3 -5 14 -7 24 -4 34 8 45 -21 39 -104 -5 -87 -11 -119 -27 -138 -19 -23
0 -107 33 -142 45 -48 68 -44 90 17 15 41 25 53 59 70 23 11 50 20 60 20 11 0
20 10 24 27 3 16 10 38 16 49 13 28 1 65 -20 62 -12 -2 -19 8 -25 37 -11 51
-14 140 -7 185 3 19 3 54 0 76 -9 61 14 103 77 139 l52 30 1 216 0 216 -35 10
c-41 13 -58 1 -81 -54 -19 -44 -49 -59 -83 -42 -14 8 -30 20 -34 26 -4 7 -16
13 -26 13 -10 0 -24 7 -31 15 -7 8 -24 15 -39 15 -15 0 -36 7 -48 15 -33 23
-68 144 -77 265 -1 14 -7 36 -13 50 -6 14 -13 55 -16 91 -5 63 -26 109 -50
109 -18 0 -129 93 -137 115 -5 13 -10 65 -11 117 -2 89 8 139 30 153 6 3 11
16 11 27 0 28 22 88 32 88 4 0 14 13 22 29 9 17 34 37 63 50 26 12 59 29 73
37 38 21 51 18 125 -35 l69 -48 24 26 c14 14 34 46 46 71 12 25 29 56 39 70 9
13 17 37 17 52 0 26 -22 58 -41 58 -16 0 -129 111 -129 126 0 19 -25 30 -105
44 -76 14 -144 51 -188 100 -15 16 -35 30 -46 30 -12 0 -21 11 -27 32 -6 19
-20 38 -34 45 -28 14 -38 38 -39 104 -1 58 12 95 61 175 21 35 43 88 49 116
21 104 88 168 161 154 19 -3 74 -26 123 -51 l87 -45 25 20 c14 11 38 20 54 20
29 0 135 35 157 53 18 14 15 23 -23 66 -19 21 -35 48 -35 59 0 12 -4 24 -10
27 -5 3 -10 17 -10 30 0 60 90 55 -1097 55 l-1084 0 -27 -28 c-31 -33 -144
-96 -247 -138 -55 -23 -86 -29 -141 -29 -70 0 -73 1 -130 46 -33 25 -75 69
-94 98 l-35 51 -535 -1 c-429 0 -530 -3 -508 -13z m2825 -1738 c-3 -8 -6 -5
-6 6 -1 11 2 17 5 13 3 -3 4 -12 1 -19z m779 -1225 c1 -15 6 -51 9 -79 12 -85
-28 -123 -94 -90 -39 21 -51 44 -51 98 0 66 9 88 39 93 14 3 37 9 51 14 31 10
42 0 46 -36z"/>
<path d="M2682 5242 c-24 -2 -36 -11 -47 -32 -16 -31 -19 -68 -7 -87 10 -16
58 -27 75 -16 28 15 74 82 73 105 -1 25 -35 35 -94 30z"/>
<path d="M5747 4867 c-26 -18 -49 -39 -52 -47 -3 -8 -30 -41 -60 -73 -30 -31
-55 -61 -55 -65 0 -16 42 -42 69 -42 38 0 97 -41 94 -66 -2 -10 -3 -45 -4 -76
-1 -57 6 -82 20 -73 5 2 16 -4 26 -15 18 -20 18 -21 -4 -51 l-23 -31 33 -30
34 -30 -50 28 c-27 15 -68 46 -91 68 -90 90 -212 161 -300 177 -33 6 -95 16
-139 24 -44 7 -123 27 -175 44 -111 37 -316 65 -370 52 -74 -18 -129 -55 -158
-106 -10 -18 -22 -20 -154 -21 -79 -1 -173 -2 -210 -3 -90 -3 -219 9 -212 20
10 17 -39 9 -52 -8 -7 -10 -16 -15 -20 -11 -4 4 -1 15 6 23 12 14 10 15 -13
11 -15 -2 -32 -8 -39 -12 -6 -4 -44 -8 -82 -9 -39 -1 -116 -3 -171 -5 -55 -1
-133 -9 -172 -17 -165 -32 -433 -152 -558 -248 -77 -60 -235 -217 -235 -235 0
-4 -16 -28 -36 -51 -45 -54 -80 -131 -94 -206 -5 -31 -15 -62 -21 -68 -11 -10
-11 0 7 100 4 22 3 26 -5 15 -9 -13 -13 -11 -31 8 -11 12 -27 22 -35 22 -8 0
-15 8 -15 17 0 15 -2 14 -19 -3 -10 -11 -26 -38 -35 -60 -41 -93 -46 -105 -46
-119 0 -8 4 -15 10 -15 16 0 114 -63 128 -82 18 -25 26 -23 39 10 10 26 11 26
12 4 1 -13 10 -35 21 -49 11 -14 20 -34 20 -44 0 -10 13 -25 30 -34 16 -8 33
-21 37 -27 14 -22 66 -53 123 -72 30 -11 67 -28 82 -39 15 -11 34 -17 42 -14
9 4 28 2 41 -3 22 -8 27 -6 35 14 7 19 14 23 32 19 20 -4 18 -1 -12 27 -19 18
-50 46 -69 63 -30 28 -33 29 -27 9 9 -29 -2 -28 -44 3 -46 34 -52 46 -32 68
15 17 17 17 34 -5 l19 -23 -7 37 c-6 35 -2 42 40 89 25 28 49 61 52 73 7 28
101 76 113 58 9 -15 56 -1 64 20 4 11 8 11 27 0 16 -10 20 -10 15 -1 -14 21
47 1 90 -31 22 -16 74 -53 115 -82 41 -29 83 -63 95 -75 47 -51 75 -92 75
-109 0 -11 -3 -15 -8 -8 -12 17 -40 24 -50 11 -10 -12 9 -52 20 -42 3 3 10 -1
17 -9 8 -10 9 -21 1 -40 -8 -21 -7 -31 5 -42 16 -17 21 -39 6 -29 -6 3 -15 -3
-20 -12 -10 -17 -12 -17 -21 0 -12 19 -64 24 -58 5 4 -10 82 -58 96 -58 2 0
-2 7 -9 17 -13 14 -11 16 12 11 25 -5 42 6 51 32 3 9 7 4 10 -12 4 -21 1 -29
-13 -33 -11 -4 -19 -10 -19 -14 0 -17 75 -82 84 -74 3 4 6 1 6 -5 0 -6 25 -36
55 -66 31 -30 52 -57 47 -60 -5 -3 -38 4 -73 14 -77 24 -99 25 -99 5 0 -22
-21 -18 -27 6 -4 12 -11 18 -20 15 -8 -3 -17 -6 -19 -6 -2 0 -4 -8 -5 -17 0
-11 -3 -13 -6 -5 -2 6 -9 10 -14 6 -5 -3 -9 2 -9 10 0 11 -9 16 -27 16 -16 0
-41 7 -57 15 -40 21 -56 19 -58 -7 0 -13 -2 -27 -3 -33 -2 -5 -3 -17 -4 -25
-1 -12 -4 -11 -15 3 -14 18 -15 18 -25 0 -9 -16 -10 -15 -11 8 0 19 -9 31 -34
44 -19 11 -33 22 -30 26 7 12 -7 39 -21 39 -28 0 30 -184 75 -241 56 -69 103
-119 114 -119 17 0 55 -54 88 -122 22 -48 30 -56 48 -51 12 3 26 17 31 30 5
13 13 22 18 18 16 -9 43 -91 39 -116 -4 -24 -5 -24 -16 4 -7 16 -17 27 -24 25
-15 -5 -28 -52 -21 -78 5 -20 23 -28 23 -10 0 6 5 10 10 10 6 0 10 -12 10 -26
0 -14 -4 -23 -9 -20 -19 12 3 -44 81 -204 101 -209 93 -196 113 -192 10 2 14
-1 10 -7 -3 -6 1 -21 9 -33 9 -12 16 -18 17 -13 1 6 4 0 7 -12 7 -21 224 -274
278 -323 24 -22 -91 133 -137 185 -9 11 -42 64 -72 117 -63 111 -44 114 24 4
45 -75 77 -119 174 -244 34 -42 83 -108 110 -145 34 -46 81 -93 147 -143 53
-41 101 -74 107 -74 6 0 16 12 22 28 38 93 118 202 150 202 10 0 21 5 24 10 3
6 13 10 21 10 8 0 13 -4 9 -9 -7 -12 31 -34 44 -27 5 3 14 -1 21 -9 11 -13 10
-15 -6 -12 -11 1 -24 6 -31 10 -6 4 -14 3 -17 -2 -4 -5 0 -12 6 -14 7 -3 -5
-3 -27 0 -26 3 -35 1 -27 -4 15 -12 5 -43 -14 -43 -8 0 -11 6 -7 17 4 11 3 14
-5 9 -7 -4 -12 -2 -12 3 0 6 -5 11 -11 11 -8 0 -8 -5 1 -15 7 -8 9 -15 5 -15
-4 0 -2 -7 5 -15 7 -8 9 -15 5 -15 -4 0 -14 8 -22 18 -8 9 -12 12 -8 5 3 -7
-3 -17 -14 -22 -15 -8 -19 -20 -17 -51 3 -40 -9 -54 -20 -25 -4 8 -10 15 -15
15 -5 0 -4 -9 3 -20 10 -16 10 -24 0 -40 -11 -17 -10 -20 7 -20 11 0 22 -4 25
-8 3 -5 -8 -6 -25 -4 -33 5 -36 -3 -12 -30 14 -16 14 -18 1 -18 -9 0 -21 -6
-27 -14 -17 -21 4 -30 23 -10 15 14 16 14 16 -1 0 -9 4 -13 10 -10 6 3 7 -1 4
-9 -3 -9 -10 -16 -16 -16 -5 0 -6 5 -3 10 3 6 1 10 -4 10 -6 0 -11 -4 -11 -9
0 -5 -3 -16 -6 -24 -4 -11 2 -14 20 -12 18 2 26 -2 26 -11 0 -9 -3 -13 -7 -11
-5 3 -17 -4 -27 -14 -19 -19 -19 -19 14 -19 l34 0 -22 -20 c-27 -25 -28 -33
-3 -25 24 7 35 -9 27 -41 -4 -15 -14 -24 -26 -24 -10 0 -21 -4 -25 -9 -7 -13
32 -34 46 -25 8 4 9 -1 4 -15 -9 -31 20 -91 45 -91 11 0 20 -4 20 -10 0 -5 -6
-10 -12 -10 -9 0 -9 -3 1 -9 8 -5 20 -7 27 -4 8 3 11 -2 7 -16 -3 -13 11 -43
42 -90 55 -82 79 -105 100 -98 22 9 19 33 -9 70 -44 59 -66 114 -60 147 6 30
24 52 24 30 0 -6 4 -9 9 -5 5 3 13 0 17 -6 3 -6 19 -9 35 -5 16 3 29 2 29 -2
0 -4 23 -16 51 -26 43 -15 53 -15 60 -4 6 9 9 10 9 1 0 -7 11 -12 25 -11 30 3
34 28 5 28 -11 0 -20 5 -20 11 0 6 10 9 23 7 17 -3 22 1 23 19 1 16 -4 23 -16
23 -30 0 -33 18 -3 22 35 4 43 28 9 28 -14 0 -26 5 -26 10 0 6 7 10 15 10 8 0
15 6 15 13 0 8 4 7 10 -3 6 -10 10 -11 10 -2 0 6 7 12 16 12 8 0 12 5 9 10 -9
15 4 12 22 -5 8 -8 20 -12 26 -8 6 4 2 9 -10 14 -12 4 -24 12 -28 18 -10 17
-35 13 -29 -4 4 -8 2 -15 -4 -15 -13 0 -23 27 -16 45 4 8 2 15 -4 15 -6 0 -13
-6 -15 -12 -3 -8 -6 -7 -6 4 -1 9 3 19 8 22 5 4 12 24 16 46 4 25 12 40 21 40
8 0 14 9 14 19 0 35 12 51 37 51 17 0 27 8 37 31 l13 32 7 -34 c4 -19 10 -51
14 -72 4 -21 10 -38 15 -37 31 1 36 -1 30 -16 -5 -13 -7 -13 -14 -2 -7 10 -9
10 -9 -3 0 -28 14 -31 32 -7 l19 23 -3 -30 c-2 -21 -8 -30 -20 -29 -22 2 -23
-12 -3 -32 14 -14 19 -11 16 8 -2 17 17 7 28 -15 l12 -22 -5 23 c-2 12 0 22 5
22 6 0 9 6 7 14 -2 8 2 16 7 18 6 2 11 -7 13 -19 4 -24 12 -29 28 -14 5 5 18
11 29 13 17 4 15 7 -15 26 l-35 22 35 2 c64 3 69 4 76 11 4 4 -2 7 -14 7 -11
0 -23 6 -25 13 -4 9 -6 9 -6 0 -1 -18 -21 -16 -21 1 0 19 30 29 47 15 11 -10
12 -8 4 14 -11 27 0 44 19 32 6 -3 10 -2 10 3 0 5 12 7 26 4 18 -3 25 -1 20 6
-4 6 -13 9 -21 5 -18 -6 -19 10 -4 38 8 16 14 18 24 9 11 -9 13 -7 9 12 -2 13
-2 17 2 11 8 -17 39 -16 53 1 9 11 9 15 -1 19 -8 4 -7 6 5 6 9 1 17 6 17 11 0
6 39 10 97 10 113 0 120 9 10 13 -43 2 -82 9 -91 16 -11 9 -16 10 -16 2 0 -17
-27 -13 -34 6 -10 25 3 31 86 37 42 3 88 10 103 16 14 5 38 10 51 10 14 0 23
4 20 9 -4 5 8 4 25 -2 26 -10 32 -9 43 5 13 18 48 25 161 33 202 13 431 54
536 95 40 16 74 20 180 20 97 0 161 6 252 24 67 14 172 27 232 30 133 7 396
43 409 56 6 6 24 10 41 11 29 1 29 1 5 9 -21 7 -22 8 -5 10 11 1 15 4 7 7 -6
2 -10 9 -6 14 3 5 2 9 -1 9 -10 0 -31 -23 -36 -39 -3 -9 -16 3 -35 32 -73 117
-154 243 -162 252 -4 6 -40 80 -79 165 -175 382 -232 500 -247 515 -9 9 -16
23 -16 32 0 32 -132 263 -211 368 -44 61 -88 126 -97 145 -11 26 -17 30 -20
17 -2 -9 21 -63 51 -120 72 -133 158 -317 148 -317 -3 0 -21 18 -38 40 l-31
41 -6 -36 -7 -36 -18 22 c-10 13 -23 19 -29 15 -18 -11 -15 -18 27 -63 65 -72
87 -106 121 -183 49 -115 106 -285 65 -195 -8 17 -14 23 -15 15 0 -8 -7 0 -15
18 -8 17 -18 32 -23 32 -11 0 -4 -81 9 -94 5 -6 9 -15 9 -20 0 -25 -30 36 -36
73 -4 22 -10 41 -15 41 -5 0 -5 7 -2 17 4 9 2 14 -4 10 -5 -3 -15 15 -22 43
-7 26 -19 56 -26 67 -13 16 -13 14 -5 -17 15 -54 11 -81 -5 -35 -8 22 -38 83
-66 135 -28 52 -47 86 -43 75 4 -11 7 -36 7 -55 -1 -26 1 -30 7 -15 6 17 8 15
15 -15 5 -19 8 -38 7 -43 -1 -4 14 -39 33 -77 19 -38 35 -73 35 -77 -1 -17
-133 229 -184 342 -119 264 -175 372 -219 430 -4 6 -24 36 -44 67 -20 32 -39
55 -42 53 -5 -6 48 -113 60 -121 5 -3 7 -10 4 -15 -4 -5 1 -12 10 -15 9 -4 14
-13 11 -21 -5 -11 -1 -13 17 -7 12 3 19 3 14 -1 -4 -5 0 -19 8 -31 8 -13 18
-47 21 -77 5 -44 3 -55 -9 -60 -11 -4 -24 4 -38 26 -13 18 -24 34 -26 36 -2 3
-10 -5 -19 -17 l-15 -22 -19 22 c-13 16 -16 32 -13 56 5 28 1 39 -27 67 -22
23 -31 40 -27 54 3 11 -3 28 -14 40 -11 11 -19 27 -19 35 0 9 -6 13 -14 10
-10 -4 -13 4 -10 35 3 37 1 41 -19 42 -12 0 -16 3 -9 6 17 7 15 30 -3 37 -8 3
-15 12 -15 21 0 8 -5 15 -11 15 -5 0 -7 5 -3 12 5 8 2 9 -10 5 -15 -6 -17 -3
-12 18 5 19 2 25 -10 25 -12 0 -15 6 -11 21 4 15 2 19 -9 15 -15 -6 -41 41
-29 52 3 3 5 2 5 -3 0 -4 7 -2 15 5 8 7 12 16 9 22 -9 14 47 -2 84 -24 18 -11
40 -31 48 -44 9 -13 50 -45 93 -73 42 -27 83 -56 90 -65 22 -27 32 -18 16 14
-9 17 -20 30 -25 30 -6 0 -10 5 -10 11 0 5 19 -3 43 -20 23 -16 51 -31 62 -33
17 -2 20 2 18 27 l-2 29 17 -26 c28 -43 122 -150 122 -139 0 5 -4 13 -10 16
-5 3 -15 16 -21 28 -11 21 -10 20 16 -3 l27 -25 -7 25 c-7 22 -6 23 8 12 13
-11 16 -10 22 10 4 13 19 33 33 46 14 12 21 22 16 22 -21 1 23 20 46 20 26 0
70 51 70 82 0 15 -39 38 -64 38 -7 0 -22 9 -35 21 -19 18 -37 21 -129 24 -105
3 -142 9 -142 25 0 5 -27 37 -60 72 -80 83 -102 130 -129 268 -26 130 -38 151
-84 143 -26 -4 -38 1 -62 26 -16 17 -37 31 -46 31 -21 0 -72 57 -94 105 -10
19 -24 35 -32 35 -8 0 -12 4 -9 9 3 4 -12 16 -34 26 l-39 18 24 19 c14 11 33
18 43 16 20 -4 42 39 42 81 0 27 -26 129 -52 204 -14 40 -17 41 -128 51 -49 4
-60 1 -103 -27z m-2462 -511 c75 -5 106 -16 152 -54 23 -18 48 -32 55 -30 7 3
18 -5 23 -16 6 -12 15 -21 21 -21 13 0 35 -22 58 -57 10 -15 22 -25 27 -22 5
3 7 -1 4 -8 -3 -8 7 -18 24 -26 16 -7 39 -21 51 -32 12 -11 26 -17 31 -14 5 3
6 -2 3 -11 -5 -11 -2 -14 10 -9 9 3 16 2 16 -3 0 -12 30 -10 49 2 10 6 12 4 6
-5 -6 -10 -4 -12 8 -7 21 8 22 -1 1 -24 -14 -15 -14 -17 3 -15 11 0 18 -6 18
-16 0 -20 15 -37 15 -17 0 11 2 11 10 -1 5 -8 7 -23 4 -32 -6 -19 -1 -21 34
-12 13 4 22 14 22 26 0 13 -4 17 -12 12 -7 -4 -4 2 6 14 22 25 38 29 30 7 -4
-8 -2 -15 4 -15 5 0 9 -8 8 -17 -1 -12 9 -17 38 -19 21 -2 41 -5 44 -9 5 -5
-40 -9 -67 -6 -7 2 -10 -3 -6 -9 4 -6 13 -9 20 -6 9 3 13 -2 12 -15 -1 -10 -7
-19 -15 -19 -10 0 -12 -9 -7 -32 4 -24 3 -29 -4 -18 -12 17 -21 10 -24 -19 -1
-23 -17 -30 -17 -8 0 7 -11 28 -25 47 -14 19 -25 28 -25 21 0 -7 7 -19 15 -28
10 -9 13 -23 9 -35 -4 -13 -2 -18 4 -14 5 3 16 -2 23 -11 12 -15 11 -16 -8
-11 -13 4 -23 3 -23 0 0 -4 -10 -8 -23 -9 -12 0 -35 -7 -52 -13 -41 -17 -165
-24 -165 -9 0 6 -6 9 -13 6 -19 -7 -112 19 -110 31 3 13 -25 24 -32 12 -3 -5
-13 -6 -21 -3 -10 4 -17 -2 -21 -16 -6 -23 -33 -29 -33 -8 0 18 25 38 71 59
30 14 39 14 60 2 28 -16 117 -18 139 -4 11 7 5 8 -19 3 -21 -4 -32 -2 -28 4 3
5 -10 8 -34 6 -60 -5 -71 4 -53 45 9 21 18 31 26 27 7 -4 4 1 -7 9 -18 15 -20
14 -33 -18 -14 -35 -46 -46 -56 -19 -8 19 -57 -11 -85 -52 -13 -19 -29 -35
-35 -35 -6 0 -38 13 -71 30 -33 16 -73 30 -90 30 -28 1 -29 1 -11 15 13 10 23
11 31 5 9 -7 16 -6 25 5 9 10 9 15 1 15 -6 0 -11 5 -11 11 0 8 17 10 55 5 36
-4 55 -3 55 5 0 5 -3 8 -7 6 -5 -3 -24 2 -43 12 -26 12 -36 23 -38 44 -3 21
-7 26 -16 18 -19 -16 -56 -2 -56 21 0 14 -5 18 -16 14 -8 -3 -33 3 -55 14 -22
12 -45 18 -51 14 -7 -5 -9 0 -6 14 4 13 2 20 -3 16 -13 -8 -39 15 -39 33 0 10
6 13 16 9 10 -4 13 -2 8 6 -5 7 1 9 20 4 28 -7 34 4 13 26 -12 12 -18 58 -8
58 2 0 13 -8 24 -17 14 -13 18 -13 12 -3 -5 8 -10 21 -12 30 -1 8 -5 27 -9 43
-4 16 -2 27 4 27 5 0 13 12 17 27 11 46 24 54 69 48 23 -4 64 -8 91 -9z m282
-48 c-3 -7 -5 -2 -5 12 0 14 2 19 5 13 2 -7 2 -19 0 -25z m16 -59 c-8 -29 -13
-23 -13 14 0 22 3 28 9 18 5 -7 6 -22 4 -32z m2325 -30 c30 -17 52 -32 50 -34
-10 -10 -77 17 -98 40 -31 33 -17 31 48 -6z m-2125 -129 c-6 -24 -23 -37 -23
-18 0 12 18 38 26 38 1 0 0 -9 -3 -20z m2197 -25 c25 -27 21 -47 -5 -25 -9 7
-18 11 -20 8 -3 -3 10 -16 30 -29 35 -24 51 -47 39 -58 -3 -3 -25 15 -49 40
-32 34 -42 52 -38 68 7 27 14 27 43 -4z m-312 -112 c22 -44 46 -137 40 -155
-7 -20 -29 28 -33 70 -2 20 -11 54 -19 74 -17 40 -19 48 -11 48 2 0 13 -17 23
-37z m-290 -4 c9 -11 28 -25 41 -30 16 -7 21 -14 16 -26 -3 -10 -3 -14 1 -11
3 4 14 -1 24 -10 22 -21 53 -82 42 -82 -12 0 -172 157 -172 169 0 18 29 12 48
-10z m588 -121 c20 -21 44 -40 54 -43 21 -7 46 -65 59 -138 7 -38 6 -45 -4
-37 -9 8 -14 7 -18 -2 -10 -27 -75 89 -103 184 -8 26 -19 50 -24 53 -11 7 -50
79 -50 92 0 4 12 -10 25 -32 14 -22 41 -57 61 -77z m-142 71 c9 -21 15 -27 19
-18 4 11 6 11 6 -2 1 -16 60 -65 74 -61 5 1 5 -2 2 -8 -4 -6 0 -19 8 -28 26
-28 80 -173 69 -184 -13 -13 -79 46 -97 86 l-13 31 -1 -29 c-1 -28 -2 -29 -21
-11 -11 10 -22 27 -25 39 -8 25 -53 141 -68 174 -9 18 -8 25 3 32 24 15 30 12
44 -21z m308 4 c10 -9 18 -22 18 -30 0 -23 -28 -14 -50 17 -19 27 -20 30 -4
30 10 0 26 -7 36 -17z m215 -78 c17 -34 20 -45 9 -36 -9 7 -25 34 -36 59 -36
80 -20 67 27 -23z m-3327 -26 c0 -5 -7 -9 -15 -9 -8 0 -15 -4 -15 -10 0 -5
-17 -10 -37 -10 l-38 1 39 23 c36 23 66 25 66 5z m1025 -9 c1 -15 -2 -17 -15
-10 -10 5 -20 6 -24 3 -3 -3 -6 -1 -6 5 0 12 32 33 39 26 3 -2 5 -13 6 -24z
m-85 -64 c0 -9 -8 -13 -22 -9 -22 4 -23 4 -4 -11 11 -9 24 -16 29 -16 4 0 5
-5 2 -11 -4 -6 -13 -8 -20 -5 -8 3 -15 -3 -17 -12 -3 -13 -8 -9 -21 16 -10 17
-23 32 -30 32 -8 0 -7 -4 3 -10 17 -11 11 -13 -50 -10 -59 2 -86 17 -31 17 22
0 47 6 56 13 8 7 26 10 39 8 14 -3 31 -1 38 3 19 13 28 11 28 -5z m2483 2 c15
-7 27 -16 27 -20 0 -12 -6 -10 -42 12 -37 22 -27 27 15 8z m-92 -70 c11 -21
11 -22 -4 -9 -10 7 -17 17 -17 22 0 15 9 10 21 -13z m-2435 -28 c11 -8 29 -28
38 -45 13 -22 14 -25 2 -11 -22 28 -31 13 -11 -18 31 -46 9 -28 -36 31 -68 89
-67 96 7 43z m1847 -42 c54 -66 45 -72 -13 -9 -28 30 -50 63 -50 75 l1 21 12
-21 c7 -11 29 -41 50 -66z m-1790 49 c4 3 7 1 7 -6 0 -17 -32 -10 -38 9 -4 12
-3 13 10 3 8 -7 18 -10 21 -6z m2045 -72 c2 -2 7 -20 12 -39 11 -48 -11 -48
-39 0 -27 45 -27 57 2 48 12 -3 24 -8 25 -9z m101 -210 c12 -7 51 -78 51 -92
0 -9 -57 52 -96 103 -25 32 -31 50 -14 39 6 -3 10 0 10 7 0 7 9 -1 19 -18 11
-18 24 -35 30 -39z m-2564 25 c3 -5 1 -10 -4 -10 -6 0 -11 5 -11 10 0 6 2 10
4 10 3 0 8 -4 11 -10z m48 -82 c-2 -5 -8 -8 -14 -8 -11 0 -12 33 -2 44 8 8 23
-25 16 -36z m2002 -118 c45 -49 53 -59 21 -30 -26 25 -66 68 -89 95 -47 58
-29 40 68 -65z m-1800 30 c-10 -11 -25 -20 -33 -20 -9 0 -6 7 9 20 31 25 47
26 24 0z m2543 -65 c-3 -3 -9 2 -12 12 -6 14 -5 15 5 6 7 -7 10 -15 7 -18z
m184 -35 c4 0 8 -7 8 -16 0 -9 16 -43 36 -76 19 -34 38 -74 41 -89 3 -16 12
-34 19 -40 8 -6 14 -18 14 -27 0 -9 8 -25 18 -36 40 -46 68 -191 38 -199 -9
-2 -103 175 -160 303 -72 159 -68 146 -54 192 l13 43 9 -28 c6 -15 13 -27 18
-27z m-122 -9 c18 -15 30 -34 28 -42 -3 -8 3 -30 14 -49 10 -19 18 -42 18 -50
0 -8 -10 4 -23 26 -12 23 -28 52 -35 64 -11 17 -11 21 -1 14 7 -4 0 9 -15 29
-34 44 -30 47 14 8z m-700 -23 c0 -6 -6 -5 -15 2 -8 7 -15 14 -15 16 0 2 7 1
15 -2 8 -4 15 -11 15 -16z m667 0 c-3 -8 -6 -5 -6 6 -1 11 2 17 5 13 3 -3 4
-12 1 -19z m606 -320 c19 -40 37 -82 39 -93 1 -11 9 -26 16 -34 7 -7 11 -16 8
-18 -8 -8 -30 19 -51 64 -11 24 -24 43 -28 43 -5 0 -5 5 -2 10 4 6 -8 25 -25
43 l-31 32 21 -50 c12 -27 28 -57 36 -66 16 -18 19 -43 3 -34 -10 7 -79 142
-79 156 0 5 7 6 15 3 8 -4 15 -1 15 5 0 6 6 11 14 11 8 0 30 -33 49 -72z m17
-153 c0 -5 -5 -3 -10 5 -5 8 -10 20 -10 25 0 6 5 3 10 -5 5 -8 10 -19 10 -25z
m-706 -74 c21 -22 35 -44 32 -50 -5 -7 -1 -8 11 -4 15 5 16 4 5 -8 -12 -12
-20 -7 -58 34 -42 47 -53 67 -36 67 4 0 25 -18 46 -39z m376 -390 c0 -5 -7
-12 -16 -15 -9 -3 -12 -2 -9 4 4 6 -31 52 -76 103 -136 150 -139 159 -16 35
64 -65 117 -122 117 -127z m-97 64 l32 -40 -37 29 c-21 15 -40 36 -43 47 -4
11 -11 16 -18 13 -7 -4 -9 -4 -5 1 4 4 2 15 -4 24 -26 33 46 -36 75 -74z
m-907 -370 c4 -8 1 -21 -5 -29 -6 -7 -8 -16 -4 -20 8 -8 -29 -36 -40 -29 -4 3
-4 10 1 16 5 7 13 27 17 45 7 34 22 42 31 17z m-186 -79 c0 -2 -8 -10 -17 -17
-16 -13 -17 -12 -4 4 13 16 21 21 21 13z m-69 -82 l24 -26 -37 21 c-22 12 -40
16 -43 11 -4 -6 1 -13 10 -16 9 -4 23 -21 31 -38 l15 -31 -23 28 c-13 15 -27
27 -31 27 -4 0 -8 -12 -8 -27 l-1 -28 -7 27 c-5 24 -8 25 -25 13 -11 -8 -15
-19 -10 -26 5 -9 2 -10 -9 -6 -12 4 -16 1 -15 -11 3 -40 -2 -54 -18 -48 -14 5
-15 1 -10 -31 6 -35 5 -37 -9 -19 -8 11 -15 26 -15 33 0 7 -4 13 -10 13 -29 0
4 51 53 83 32 21 35 37 6 44 -16 4 -17 8 -7 14 7 5 20 9 28 9 12 0 12 -2 1 -9
-9 -6 -10 -11 -2 -15 11 -7 51 14 51 26 0 18 38 6 61 -18z m-174 -28 c0 -8 -6
-12 -15 -8 -10 3 -13 1 -8 -6 4 -7 3 -12 -3 -12 -21 0 -21 21 1 29 13 6 23 10
24 10 0 1 1 -5 1 -13z m-67 -21 c11 -13 10 -14 -4 -9 -9 3 -16 10 -16 15 0 13
6 11 20 -6z m309 -4 c30 -30 32 -71 4 -70 -11 0 -13 3 -5 6 18 7 15 27 -9 57
-24 30 -18 35 10 7z m-712 3 c-3 -3 -12 -4 -19 -1 -8 3 -5 6 6 6 11 1 17 -2
13 -5z m371 -6 c20 -20 14 -27 -13 -15 -14 7 -25 15 -25 20 0 11 25 8 38 -5z
m392 4 c0 -4 -4 -12 -8 -19 -6 -9 -11 -8 -19 5 -9 15 -7 18 8 19 11 1 19 -1
19 -5z m-438 -36 c11 -26 5 -56 -11 -56 -5 0 -7 9 -4 20 3 12 -2 29 -12 40
-17 18 -17 20 -1 20 9 0 21 -11 28 -24z m676 1 c6 3 12 1 12 -4 0 -15 -48 -13
-54 2 -4 12 -2 13 12 7 9 -5 23 -7 30 -5z m-328 -32 c0 -5 -5 -3 -10 5 -5 8
-10 20 -10 25 0 6 5 3 10 -5 5 -8 10 -19 10 -25z m270 31 c0 -3 -4 -8 -10 -11
-5 -3 -10 -1 -10 4 0 6 5 11 10 11 6 0 10 -2 10 -4z m-710 -15 c0 -5 -8 -12
-17 -15 -10 -4 -31 -25 -48 -48 -25 -36 -30 -53 -32 -113 -3 -67 -2 -69 12
-40 8 17 14 35 15 40 1 23 77 98 112 110 43 14 50 11 42 -21 -4 -15 -2 -24 5
-24 6 0 11 4 11 10 0 5 15 16 34 24 18 8 37 19 40 25 12 20 26 12 26 -15 0
-18 -4 -25 -14 -21 -7 3 -19 0 -25 -6 -8 -8 -11 -7 -11 4 -1 7 -7 0 -14 -17
-8 -17 -11 -44 -8 -60 l5 -29 -21 25 c-23 28 -34 23 -34 -15 0 -19 -4 -23 -13
-15 -13 10 -36 9 -67 -4 -10 -5 -20 -23 -24 -42 -3 -19 -12 -34 -19 -34 -17 0
-42 -77 -52 -155 -4 -33 -7 -62 -6 -65 13 -73 13 -99 1 -95 -10 4 -13 35 -14
117 -1 107 -2 112 -23 113 -24 2 -42 15 -20 15 10 1 9 5 -5 15 -17 13 -18 16
-4 38 15 22 14 24 -13 39 -16 10 -29 24 -29 32 0 8 -6 16 -12 19 -17 6 20 58
50 72 12 5 22 15 22 21 0 6 13 17 30 24 16 7 32 21 35 31 4 10 11 19 16 19 5
0 9 6 9 13 0 8 10 19 23 25 28 14 37 14 37 3z m-364 -27 c-5 -13 -3 -14 6 -7
24 18 45 22 45 7 0 -8 -8 -14 -18 -14 -10 0 -20 -4 -23 -8 -9 -15 6 -51 23
-55 10 -3 6 -5 -9 -6 l-25 -2 25 -15 c23 -14 23 -15 3 -11 -18 4 -21 0 -20
-19 1 -13 11 -30 22 -38 19 -15 19 -15 -10 -10 -26 5 -31 2 -32 -14 -1 -14 6
-22 23 -26 25 -7 33 -31 13 -38 -19 -6 13 -48 36 -49 19 0 19 -1 -2 -11 -15
-7 -23 -20 -23 -37 -1 -25 -1 -25 -15 -7 -8 11 -12 29 -9 42 3 12 1 25 -4 28
-6 4 -8 -3 -5 -16 5 -21 4 -21 -10 -8 -27 25 -45 115 -35 174 18 103 31 156
41 156 5 0 6 -7 3 -16z m737 -29 c-3 -9 -8 -14 -10 -11 -3 3 -2 9 2 15 9 16
15 13 8 -4z m48 -18 c-16 -16 -26 0 -10 19 9 11 15 12 17 4 2 -6 -1 -17 -7
-23z m-1001 -19 c0 -6 -7 -5 -15 2 -8 7 -15 17 -15 22 0 6 7 5 15 -2 8 -7 15
-17 15 -22z m110 18 c0 -3 -4 -8 -10 -11 -5 -3 -10 -1 -10 4 0 6 5 11 10 11 6
0 10 -2 10 -4z m37 -22 c-3 -3 -12 -4 -19 -1 -8 3 -5 6 6 6 11 1 17 -2 13 -5z
m776 -39 c-3 -9 -8 -14 -10 -11 -3 3 -2 9 2 15 9 16 15 13 8 -4z m-623 -9 c0
-11 -19 -15 -25 -6 -3 5 1 10 9 10 9 0 16 -2 16 -4z m450 -6 c0 -5 -2 -10 -4
-10 -3 0 -8 5 -11 10 -3 6 -1 10 4 10 6 0 11 -4 11 -10z m-495 -10 c3 -5 -1
-10 -10 -10 -9 0 -13 5 -10 10 3 6 8 10 10 10 2 0 7 -4 10 -10z m511 -116 c-3
-9 -6 -20 -6 -25 0 -5 -7 -9 -15 -9 -18 0 -19 16 -2 35 16 19 31 19 23 -1z
m-36 -54 c0 -5 -4 -10 -10 -10 -5 0 -10 5 -10 10 0 6 5 10 10 10 6 0 10 -4 10
-10z m67 -39 c-10 -12 -9 -14 6 -8 9 3 17 2 17 -3 0 -11 -33 -14 -42 -5 -3 4
-1 17 6 30 7 15 13 19 18 12 4 -6 1 -18 -5 -26z m-472 -96 c20 -38 44 -78 52
-87 18 -20 4 -25 -16 -5 -11 10 -13 8 -8 -10 3 -13 1 -26 -4 -29 -6 -3 -9 9
-7 28 2 43 -9 63 -27 48 -11 -9 -13 -5 -10 17 3 28 -12 73 -30 85 -5 4 -6 8
-2 8 4 0 3 10 -4 23 -10 20 -10 20 4 7 8 -8 32 -46 52 -85z m-55 25 c0 -5 -5
-10 -11 -10 -5 0 -7 5 -4 10 3 6 8 10 11 10 2 0 4 -4 4 -10z m132 -74 c-3 -5
-9 -1 -13 10 -12 31 -10 39 5 19 8 -11 12 -24 8 -29z m-274 -1 c-2 -5 -8 -10
-15 -10 -6 0 -15 -4 -19 -8 -17 -17 -25 -5 -9 13 19 21 49 24 43 5z m322 -81
c0 -2 -16 -4 -36 -4 -19 0 -33 4 -30 8 5 8 66 4 66 -4z m-300 -24 c0 -5 -7
-10 -16 -10 -8 0 -12 5 -9 10 3 6 10 10 16 10 5 0 9 -4 9 -10z m390 -4 c0 -9
-30 -14 -35 -6 -4 6 3 10 14 10 12 0 21 -2 21 -4z m-70 -35 c0 -3 -11 -7 -25
-7 -26 -2 -34 11 -12 19 14 5 37 -2 37 -12z"/>
<path d="M3385 4320 c3 -5 8 -10 11 -10 2 0 4 5 4 10 0 6 -5 10 -11 10 -5 0
-7 -4 -4 -10z"/>
<path d="M3196 4301 c-8 -12 -5 -93 3 -86 5 5 9 95 4 95 -1 0 -4 -4 -7 -9z"/>
<path d="M3233 4298 c-2 -5 6 -8 19 -8 42 -1 78 -45 78 -94 0 -33 -11 -38 -45
-20 -37 19 -39 14 -11 -20 22 -28 23 -29 49 -11 15 9 27 26 27 36 0 10 5 21
10 24 16 10 11 -32 -6 -49 -14 -14 -14 -18 0 -31 13 -14 16 -12 26 22 9 29 9
45 0 68 -7 17 -14 25 -17 19 -3 -10 -79 55 -76 66 2 8 -48 6 -54 -2z"/>
<path d="M3370 4302 c0 -5 21 -29 47 -55 43 -43 83 -61 83 -37 0 6 -7 10 -15
10 -9 0 -27 11 -41 25 -14 14 -29 25 -34 25 -6 0 -10 6 -10 14 0 8 -7 16 -15
20 -8 3 -15 2 -15 -2z"/>
<path d="M3310 4290 c8 -5 20 -10 25 -10 6 0 3 5 -5 10 -8 5 -19 10 -25 10 -5
0 -3 -5 5 -10z"/>
<path d="M3157 4266 c3 -15 10 -29 15 -32 6 -4 7 2 3 17 -10 35 -23 45 -18 15z"/>
<path d="M3220 4270 c0 -47 71 -101 90 -70 13 21 -10 60 -36 60 -13 0 -26 5
-29 10 -8 13 -25 13 -25 0z"/>
<path d="M3146 4155 c4 -8 11 -15 16 -15 6 0 5 6 -2 15 -7 8 -14 15 -16 15 -2
0 -1 -7 2 -15z"/>
<path d="M3200 4163 c0 -4 5 -15 10 -23 8 -13 10 -13 10 2 0 9 -4 20 -10 23
-5 3 -10 3 -10 -2z"/>
<path d="M3470 4160 c0 -5 5 -10 11 -10 5 0 7 5 4 10 -3 6 -8 10 -11 10 -2 0
-4 -4 -4 -10z"/>
<path d="M3181 4118 c0 -13 4 -32 9 -43 7 -16 9 -13 9 17 1 20 -3 40 -9 43 -6
3 -10 -4 -9 -17z"/>
<path d="M3453 4122 c8 -9 17 -24 20 -32 3 -9 6 -4 6 11 1 19 -5 28 -20 32
-19 5 -19 4 -6 -11z"/>
<path d="M3530 4130 c0 -5 5 -10 10 -10 6 0 10 5 10 10 0 6 -4 10 -10 10 -5 0
-10 -4 -10 -10z"/>
<path d="M3412 4100 c-7 -11 -19 -20 -27 -20 -8 0 -15 -4 -15 -10 0 -15 12
-12 39 9 13 10 22 23 20 30 -2 6 -9 3 -17 -9z"/>
<path d="M3248 4091 c12 -6 22 -17 22 -26 0 -13 2 -14 14 -3 18 16 10 25 -29
33 -26 5 -27 4 -7 -4z"/>
<path d="M3336 4081 c-16 -17 -16 -20 -1 -35 9 -9 18 -16 19 -16 2 0 2 70 0
70 0 0 -9 -8 -18 -19z"/>
<path d="M3588 4068 c-10 -10 -14 -18 -9 -18 10 0 36 29 30 34 -2 1 -12 -6
-21 -16z"/>
<path d="M3230 4050 c0 -5 5 -10 10 -10 6 0 10 5 10 10 0 6 -4 10 -10 10 -5 0
-10 -4 -10 -10z"/>
<path d="M3687 4053 c-10 -9 -9 -23 2 -23 5 0 11 7 15 15 5 15 -5 20 -17 8z"/>
<path d="M3450 4046 c0 -2 7 -6 15 -10 8 -3 15 -1 15 4 0 6 -7 10 -15 10 -8 0
-15 -2 -15 -4z"/>
<path d="M3630 4040 c0 -5 5 -10 10 -10 6 0 10 5 10 10 0 6 -4 10 -10 10 -5 0
-10 -4 -10 -10z"/>
<path d="M3731 4014 c0 -11 3 -14 6 -6 3 7 2 16 -1 19 -3 4 -6 -2 -5 -13z"/>
<path d="M3786 4014 c-5 -14 -4 -15 9 -4 17 14 19 20 6 20 -5 0 -12 -7 -15
-16z"/>
<path d="M3405 4010 c-3 -5 -1 -10 4 -10 6 0 11 5 11 10 0 6 -2 10 -4 10 -3 0
-8 -4 -11 -10z"/>
<path d="M3540 3999 c0 -5 5 -7 10 -4 6 3 10 8 10 11 0 2 -4 4 -10 4 -5 0 -10
-5 -10 -11z"/>
<path d="M3600 3970 c0 -5 5 -10 11 -10 5 0 7 5 4 10 -3 6 -8 10 -11 10 -2 0
-4 -4 -4 -10z"/>
<path d="M3321 3961 c-7 -5 -11 -15 -9 -22 3 -10 8 -7 17 9 13 24 12 26 -8 13z"/>
<path d="M3410 3959 c0 -5 5 -7 10 -4 6 3 10 8 10 11 0 2 -4 4 -10 4 -5 0 -10
-5 -10 -11z"/>
<path d="M3750 3949 c0 -5 5 -7 10 -4 6 3 10 8 10 11 0 2 -4 4 -10 4 -5 0 -10
-5 -10 -11z"/>
<path d="M3702 3920 c-28 -15 -30 -18 -13 -23 12 -3 22 1 25 10 4 8 13 13 21
10 9 -4 12 -1 8 9 -3 7 -6 13 -7 13 0 -1 -16 -9 -34 -19z"/>
<path d="M3807 3905 c-23 -25 -42 -35 -69 -38 -55 -5 -61 -19 -8 -16 25 2 51
-1 58 -5 7 -4 12 -1 12 8 0 9 4 16 9 16 5 0 11 9 14 20 3 13 10 18 21 14 12
-4 16 0 16 15 0 30 -16 26 -53 -14z"/>
<path d="M3470 3919 c0 -5 5 -7 10 -4 6 3 10 8 10 11 0 2 -4 4 -10 4 -5 0 -10
-5 -10 -11z"/>
<path d="M3516 3917 c3 -10 9 -15 12 -12 3 3 0 11 -7 18 -10 9 -11 8 -5 -6z"/>
<path d="M3430 3904 c0 -8 5 -12 10 -9 6 4 8 11 5 16 -9 14 -15 11 -15 -7z"/>
<path d="M3361 3871 c-8 -5 -9 -11 -3 -15 5 -3 15 1 22 9 14 16 3 20 -19 6z"/>
<path d="M3610 3873 c0 -5 16 -8 35 -9 18 0 32 3 29 8 -6 10 -64 11 -64 1z"/>
<path d="M3630 3775 c0 -8 4 -15 10 -15 5 0 7 7 4 15 -4 8 -8 15 -10 15 -2 0
-4 -7 -4 -15z"/>
<path d="M3780 3770 c-9 -6 -10 -10 -3 -10 6 0 15 5 18 10 8 12 4 12 -15 0z"/>
<path d="M5865 3798 c4 -12 11 -30 16 -38 7 -13 9 -13 14 2 4 10 -2 25 -15 38
l-22 22 7 -24z"/>
<path d="M4993 1400 c-1 -16 1 -17 12 -7 7 6 11 15 8 20 -8 13 -19 7 -20 -13z"/>
<path d="M4826 1371 c-4 -7 -5 -15 -2 -18 9 -9 19 4 14 18 -4 11 -6 11 -12 0z"/>
<path d="M4865 1230 c-3 -5 -1 -10 4 -10 6 0 11 5 11 10 0 6 -2 10 -4 10 -3 0
-8 -4 -11 -10z"/>
<path d="M8975 3753 c-47 -45 -51 -68 -13 -84 47 -19 58 -7 58 61 0 33 -1 60
-2 60 -2 0 -21 -17 -43 -37z"/>
<path d="M6207 3620 c9 -25 24 -54 34 -65 9 -11 35 -58 57 -105 22 -47 47 -94
56 -105 12 -14 11 -8 -4 23 -12 24 -19 51 -15 60 3 9 3 13 -1 9 -4 -4 -16 12
-26 34 -21 48 -22 53 -6 43 7 -4 8 -3 4 5 -4 6 -12 9 -17 6 -5 -4 -9 3 -9 15
0 11 -14 36 -31 54 -16 19 -36 42 -44 52 -11 14 -10 8 2 -26z"/>
<path d="M3090 3540 c0 -5 5 -10 10 -10 6 0 10 -6 10 -14 0 -21 21 -31 31 -15
6 10 1 20 -14 31 -25 20 -37 22 -37 8z"/>
<path d="M6310 3490 c0 -5 5 -10 10 -10 6 0 10 5 10 10 0 6 -4 10 -10 10 -5 0
-10 -4 -10 -10z"/>
<path d="M6251 3474 c0 -11 3 -14 6 -6 3 7 2 16 -1 19 -3 4 -6 -2 -5 -13z"/>
<path d="M2501 3395 c-13 -30 -29 -55 -35 -55 -15 -1 -46 -65 -47 -98 0 -28
-17 -77 -18 -54 -1 6 -12 12 -26 12 -18 0 -29 -9 -41 -32 -9 -18 -22 -36 -28
-40 -6 -4 1 -8 17 -8 18 0 27 -5 27 -16 0 -22 -20 -55 -29 -49 -10 5 -38 -55
-32 -70 12 -38 8 -51 -30 -87 -39 -37 -79 -49 -104 -30 -15 11 -17 33 -3 49 9
12 9 16 -3 24 -37 23 -76 -3 -63 -43 4 -13 6 -27 5 -33 -2 -5 -5 -18 -6 -28
-3 -33 -68 -135 -93 -147 -21 -9 -32 -8 -59 7 -18 10 -33 22 -33 28 0 6 -9 16
-20 23 -18 11 -20 22 -19 78 2 83 -14 103 -85 105 -33 2 -50 7 -54 18 -8 23
-23 31 -58 31 -21 0 -36 7 -46 21 -13 21 -15 21 -48 5 -19 -10 -54 -38 -77
-64 -39 -43 -43 -45 -65 -33 -26 13 -210 23 -202 10 7 -12 -17 -22 -28 -11 -5
5 -27 8 -48 5 -22 -3 -40 -1 -44 6 -5 8 -15 6 -34 -7 -15 -10 -40 -19 -57 -21
-16 -1 -62 -18 -100 -36 -125 -59 -178 -70 -271 -57 -44 7 -91 12 -105 12 -34
0 -58 -28 -51 -60 3 -14 6 -68 7 -120 1 -52 5 -112 9 -133 6 -30 2 -49 -18
-92 -15 -29 -26 -58 -26 -63 0 -5 -9 -17 -19 -26 -22 -20 -31 -58 -19 -79 4
-9 22 -18 39 -22 17 -4 28 -9 25 -12 -7 -7 59 -52 102 -70 24 -10 32 -19 32
-39 0 -14 9 -37 20 -51 11 -14 20 -37 20 -52 0 -48 23 -60 94 -49 19 3 24 -3
50 -60 8 -18 10 -29 4 -26 -8 5 -9 1 -5 -10 4 -9 -3 -46 -15 -83 -21 -63 -21
-67 -5 -95 9 -16 17 -38 17 -49 0 -33 17 -20 25 18 4 21 11 46 16 55 9 16 13
17 37 4 15 -8 43 -33 62 -56 19 -24 42 -51 52 -60 12 -14 16 -34 14 -82 -1
-36 3 -75 11 -90 18 -38 17 -40 -19 -33 -32 6 -34 4 -55 -47 -12 -29 -24 -79
-27 -112 -6 -57 -26 -102 -39 -89 -4 3 -7 1 -7 -5 0 -7 -8 -12 -17 -12 -10 0
-36 -11 -58 -25 -22 -13 -50 -25 -62 -25 -19 0 -23 -5 -23 -35 0 -19 -1 -37
-1 -40 -13 -56 -29 -159 -29 -190 0 -34 6 -44 34 -68 19 -15 44 -27 55 -27 11
0 23 -5 26 -10 8 -13 85 -13 85 0 0 12 29 2 53 -18 9 -8 20 -12 24 -8 4 3 12
-7 19 -24 11 -25 11 -37 -1 -71 -31 -86 -90 -149 -141 -149 -19 0 -45 -7 -58
-15 -42 -28 -171 8 -196 55 -19 36 -35 23 -37 -31 -1 -29 -6 -56 -12 -62 -5
-5 -30 -12 -55 -14 -44 -3 -46 -2 -46 22 0 29 -18 49 -86 95 -27 19 -52 38
-55 43 -10 14 -29 -1 -29 -24 0 -10 -4 -19 -10 -19 -15 0 -12 -33 5 -56 9 -12
14 -43 15 -83 0 -49 3 -62 13 -58 8 3 20 1 28 -4 15 -9 16 -9 -36 -13 -11 0
-21 -10 -23 -21 -5 -28 -33 -92 -66 -155 -8 -14 -16 -37 -20 -52 l-6 -28 935
0 c622 0 934 3 930 10 -3 6 -13 10 -22 10 -22 0 -65 33 -136 104 -45 45 -74
86 -106 151 -24 50 -49 93 -55 97 -5 3 -39 6 -75 6 -37 0 -67 4 -69 10 -3 10
-45 52 -161 161 -43 40 -62 51 -88 51 -27 0 -33 -4 -34 -22 0 -13 -3 -17 -6
-10 -2 6 -11 12 -19 12 -8 0 -17 6 -20 14 -3 7 -23 22 -45 32 -42 20 -52 42
-65 138 -6 42 -3 51 30 102 34 50 38 66 53 180 15 113 19 126 42 142 14 9 26
24 26 32 0 10 8 14 25 12 14 -2 34 5 45 15 51 47 119 56 249 33 120 -22 126
-24 126 -49 0 -35 25 -51 110 -72 155 -36 178 -48 260 -133 62 -64 87 -112
105 -203 13 -68 13 -87 2 -143 -8 -36 -12 -72 -9 -82 4 -17 40 -31 79 -32 23
-1 73 -39 73 -57 0 -6 15 -25 33 -43 93 -94 100 -105 98 -162 0 -30 -2 -57 -3
-61 -1 -5 4 -27 10 -50 15 -51 7 -73 -47 -132 -23 -25 -41 -48 -41 -53 0 -4
36 -8 81 -8 89 0 89 -1 53 74 -30 62 -21 79 98 199 37 37 75 67 85 67 10 0 27
6 38 13 11 8 47 21 80 31 83 24 103 35 144 80 20 21 62 51 93 66 53 25 68 27
185 29 117 1 133 -1 181 -23 58 -28 71 -19 20 13 -18 11 -41 29 -50 40 -10 12
-27 21 -38 21 -12 0 -19 4 -16 9 3 5 26 6 50 4 l44 -5 -5 43 c-4 41 3 74 40
174 10 27 29 50 58 71 52 36 85 81 101 138 6 23 24 55 40 71 15 17 28 37 27
45 0 8 -22 44 -49 80 -93 123 -120 167 -129 211 -6 24 -14 61 -20 83 -5 21 -7
45 -4 52 3 8 1 14 -5 14 -5 0 -12 10 -15 21 -5 19 -11 21 -42 15 -27 -5 -37
-3 -41 9 -3 8 -12 15 -20 15 -8 0 -14 5 -14 11 0 6 -19 -6 -42 -27 -24 -21
-43 -41 -43 -44 0 -3 -10 -16 -22 -30 -13 -13 -23 -28 -23 -34 0 -5 -10 -20
-21 -32 -12 -13 -23 -33 -24 -46 -1 -13 -3 -27 -4 -31 0 -5 -9 -6 -18 -3 -31
9 -57 -19 -49 -55 4 -21 0 -40 -11 -59 -28 -47 -91 -53 -175 -16 l-54 24 -70
-30 c-38 -16 -83 -33 -100 -38 -75 -18 -237 38 -247 85 -2 14 -1 28 4 31 5 3
16 20 25 39 10 23 29 40 55 52 21 9 39 20 39 25 0 4 15 14 33 22 36 16 86 61
88 79 1 7 1 20 0 29 -1 9 4 27 12 40 8 13 18 45 22 73 4 27 14 67 22 88 13 32
14 50 5 104 -6 36 -19 74 -28 84 -11 12 -16 34 -16 64 1 37 -2 45 -16 45 -24
0 -92 -65 -92 -88 0 -10 -13 -25 -29 -35 -16 -9 -44 -35 -62 -57 -18 -22 -37
-40 -42 -40 -4 0 -13 -4 -20 -10 -60 -49 -77 -60 -94 -60 -11 0 -23 -3 -27 -7
-4 -5 -11 -8 -16 -8 -5 0 -22 -19 -39 -42 l-31 -42 -44 13 c-25 8 -47 12 -49
9 -3 -2 -15 10 -27 26 -37 52 -57 57 -94 24 -82 -77 -141 -108 -242 -128 -51
-10 -140 19 -179 60 -38 39 -43 40 -80 23 -19 -8 -30 -25 -41 -65 -18 -60 -61
-111 -123 -143 -22 -11 -48 -31 -59 -45 -15 -18 -29 -25 -55 -25 -30 0 -43 9
-89 57 -29 31 -70 74 -91 96 -20 22 -40 51 -44 66 -3 14 -15 43 -26 64 -17 34
-19 52 -14 145 3 59 12 127 21 152 19 56 20 99 2 125 -7 11 -16 41 -20 67 -4
25 -18 70 -32 99 -27 56 -33 121 -19 216 9 59 57 107 107 105 45 -1 50 -13 28
-57 -30 -58 -26 -72 18 -80 20 -3 44 -12 53 -18 28 -21 69 -89 69 -113 0 -17
6 -24 20 -24 10 0 25 -10 31 -22 6 -13 23 -35 37 -50 21 -23 24 -33 19 -72 -6
-38 -3 -47 20 -70 56 -56 108 -44 147 33 14 27 45 65 68 84 38 31 52 36 118
42 41 4 100 6 131 6 40 -2 59 3 69 14 7 8 28 15 50 15 24 0 43 7 55 20 20 22
126 83 164 95 13 4 39 21 58 38 36 33 101 66 120 60 7 -3 16 23 24 69 10 56
19 79 39 98 41 39 64 80 62 111 -2 24 4 32 40 50 50 25 70 48 62 69 -61 164
-74 292 -37 370 23 48 26 62 24 98 -2 36 -14 25 -40 -33z m-1341 -585 c0 -5
-7 -10 -16 -10 -8 0 -12 5 -9 10 3 6 10 10 16 10 5 0 9 -4 9 -10z m-286 -908
c2 -4 -2 -18 -9 -32 -12 -22 -14 -23 -20 -7 -12 30 13 64 29 39z m2149 -822
c9 -11 17 -24 17 -29 0 -5 7 -11 15 -15 55 -21 -45 -166 -115 -166 -52 0 -72
16 -65 53 3 18 10 41 15 52 21 50 26 66 28 98 2 18 42 25 42 6 0 -6 7 -3 16 5
20 21 26 20 47 -4z"/>
<path d="M3430 3376 c0 -2 7 -9 15 -16 9 -7 15 -8 15 -2 0 5 -7 12 -15 16 -8
3 -15 4 -15 2z"/>
<path d="M6580 3364 c0 -20 147 -269 160 -270 6 -1 15 -2 20 -3 6 0 10 -7 10
-14 0 -7 6 -21 13 -31 12 -16 13 -16 14 4 1 11 -2 18 -8 15 -5 -4 -9 0 -9 8 0
8 -6 27 -14 41 -11 23 -15 24 -20 10 -5 -12 -10 -14 -17 -7 -13 13 -15 41 -5
71 5 13 3 22 -3 22 -6 0 -11 -10 -11 -22 0 -18 -2 -20 -9 -8 -6 8 -7 18 -4 24
4 5 1 6 -7 1 -9 -6 -11 1 -6 26 4 23 3 27 -2 14 -9 -19 -9 -19 -20 2 -15 27
-15 36 0 27 7 -4 8 -3 4 5 -4 6 -12 9 -17 6 -13 -9 -11 9 4 24 10 10 8 15 -7
27 -11 8 -26 14 -33 14 -7 0 -13 5 -13 10 0 6 -4 10 -10 10 -5 0 -10 -3 -10
-6z"/>
<path d="M1586 3267 c-25 -41 -46 -84 -46 -96 0 -32 26 -88 46 -99 10 -6 15
-16 11 -26 -7 -17 8 -22 18 -6 3 5 18 7 33 4 23 -4 29 -1 40 25 31 71 3 261
-39 269 -11 2 -32 -22 -63 -71z"/>
<path d="M3334 3329 c-8 -14 14 -29 33 -22 18 7 17 20 -3 27 -21 8 -22 8 -30
-5z"/>
<path d="M6498 3333 c7 -3 16 -2 19 1 4 3 -2 6 -13 5 -11 0 -14 -3 -6 -6z"/>
<path d="M3070 3263 c0 -23 57 -56 77 -45 12 7 9 14 -17 35 -36 31 -60 35 -60
10z"/>
<path d="M3330 3154 c0 -7 52 -25 57 -20 2 2 -10 8 -26 14 -17 6 -31 9 -31 6z"/>
<path d="M6727 3140 c3 -11 7 -20 9 -20 2 0 4 9 4 20 0 11 -4 20 -9 20 -5 0
-7 -9 -4 -20z"/>
<path d="M1166 3053 c-6 -14 -5 -15 5 -6 7 7 10 15 7 18 -3 3 -9 -2 -12 -12z"/>
<path d="M6810 3034 c0 -6 7 -19 16 -30 14 -18 14 -18 3 6 -14 31 -19 36 -19
24z"/>
<path d="M7595 2812 c-11 -8 -26 -30 -55 -84 -11 -21 -25 -38 -30 -38 -5 0
-12 -11 -16 -25 -3 -14 -10 -25 -15 -25 -5 0 -9 -13 -9 -29 0 -15 -9 -40 -20
-54 -37 -47 -11 -113 29 -72 10 10 11 15 3 15 -7 0 -12 4 -12 9 0 4 12 8 28 8
16 -1 57 19 102 47 41 27 86 55 98 63 36 22 23 77 -29 125 -22 20 -45 39 -52
42 -9 3 -9 5 1 5 6 1 12 6 12 11 0 12 -20 13 -35 2z"/>
<path d="M7420 2450 c0 -5 5 -10 10 -10 6 0 10 5 10 10 0 6 -4 10 -10 10 -5 0
-10 -4 -10 -10z"/>
<path d="M7450 2434 c0 -8 5 -12 10 -9 6 3 10 10 10 16 0 5 -4 9 -10 9 -5 0
-10 -7 -10 -16z"/>
<path d="M0 1967 c0 -287 1 -300 21 -328 23 -33 46 -34 71 -2 20 24 22 58 8
118 -8 34 -6 46 14 80 13 22 32 72 42 112 16 64 21 72 44 75 14 2 25 8 26 13
0 6 6 24 14 40 22 53 40 117 34 126 -9 15 -38 10 -73 -14 -29 -20 -42 -22 -80
-16 -37 5 -52 14 -83 50 l-38 44 0 -298z"/>
<path d="M8695 2023 c-68 -12 -69 -13 -49 -28 18 -13 18 -14 0 -21 -11 -4 -21
-2 -26 6 -5 8 -15 10 -26 6 -16 -6 -16 -9 -4 -17 11 -8 10 -9 -8 -4 -12 4 -36
0 -54 -9 -17 -9 -41 -14 -52 -11 -12 3 -15 2 -7 -2 10 -4 -6 -16 -45 -34 -69
-34 -76 -35 -67 -12 5 13 2 15 -11 10 -10 -4 -24 -7 -32 -7 -8 0 -14 -4 -14
-10 0 -5 7 -10 15 -10 18 0 19 -12 3 -28 -15 -15 -3 -16 24 -1 11 6 22 8 25 6
6 -7 -74 -87 -87 -87 -5 0 -7 -7 -4 -15 4 -10 15 -12 34 -9 55 12 46 -39 -9
-51 -16 -3 -38 -15 -51 -27 -19 -18 -26 -19 -43 -9 -12 8 -22 9 -26 3 -12 -19
-37 -19 -57 0 -17 15 -26 17 -48 8 -18 -7 -33 -7 -44 0 -16 9 -16 9 1 10 30 0
147 62 147 78 0 11 -8 13 -29 9 -16 -3 -33 -1 -40 6 -8 8 -14 8 -19 2 -8 -11
-48 -19 -100 -20 -20 0 -31 -4 -28 -12 3 -6 -8 -16 -25 -22 -33 -11 -34 -14
-16 -41 8 -14 9 -23 2 -28 -17 -12 -14 -42 4 -43 9 0 11 -3 5 -5 -7 -3 -10
-13 -7 -23 3 -11 -4 -21 -21 -29 -32 -14 -35 -35 -3 -23 54 20 77 22 77 6 0
-8 -4 -15 -8 -15 -5 0 -13 -10 -19 -23 -9 -20 -7 -25 23 -45 28 -19 34 -27 30
-50 -2 -15 -5 -30 -5 -34 -1 -5 -8 -8 -16 -8 -24 0 -17 -17 10 -24 28 -7 33
-24 10 -32 -8 -4 -12 -10 -9 -15 3 -5 -12 -9 -33 -10 -70 -1 -89 -23 -38 -43
19 -8 19 -8 -3 -19 -18 -8 -25 -8 -32 4 -8 11 -12 11 -24 -6 -14 -19 -15 -19
-28 -2 -13 17 -15 17 -27 3 -12 -14 -11 -16 5 -10 10 4 16 4 12 -1 -13 -14
-138 -33 -138 -21 0 7 -3 7 -8 -1 -9 -14 -85 -15 -94 0 -5 8 -14 7 -33 -1 -14
-7 -35 -12 -45 -12 -11 0 -20 -7 -20 -15 0 -22 -101 -25 -127 -3 -8 7 -29 6
-63 -1 -28 -6 -67 -11 -86 -11 -36 0 -88 -26 -79 -40 3 -5 20 -4 37 1 19 5 36
5 41 0 5 -5 17 -7 26 -4 10 3 7 -3 -8 -16 -13 -12 -20 -25 -16 -29 4 -4 10 -1
12 6 3 6 11 12 19 12 8 0 14 6 14 13 1 7 6 4 15 -7 7 -10 18 -15 23 -12 5 3
15 0 21 -8 9 -11 8 -15 -5 -20 -22 -8 -26 -8 -19 3 7 12 -31 25 -45 16 -6 -4
-8 -11 -5 -16 4 -5 -1 -9 -9 -9 -22 0 -20 -20 2 -20 22 -1 63 -30 41 -30 -8 0
-20 5 -26 11 -13 13 -47 4 -38 -10 3 -5 -18 -12 -47 -15 -29 -3 -114 -13 -188
-22 -74 -9 -157 -19 -183 -21 -29 -3 -51 -11 -54 -19 -7 -19 6 -32 16 -16 5 9
14 -2 25 -33 10 -25 19 -51 20 -58 7 -32 27 -66 47 -80 16 -12 20 -23 17 -46
-3 -18 0 -31 6 -31 16 0 66 -96 66 -126 0 -14 4 -23 9 -20 8 5 21 -21 25 -49
0 -5 7 -10 14 -10 7 0 19 -12 27 -27 7 -16 10 -28 4 -28 -5 0 -9 -4 -9 -10 0
-5 10 -10 21 -10 19 0 21 -4 15 -39 -4 -28 -2 -42 9 -51 8 -7 15 -22 15 -33 0
-11 10 -34 23 -51 34 -46 91 -165 83 -173 -4 -4 -9 3 -13 15 -5 22 -23 31 -23
11 0 -33 25 -38 244 -39 119 0 216 2 216 5 0 4 -11 21 -24 38 -33 45 -96 165
-96 185 0 9 -9 41 -20 70 -27 70 -25 76 10 55 25 -15 35 -15 62 -5 17 6 34 9
39 6 4 -2 17 -29 28 -60 12 -30 30 -73 41 -94 11 -22 20 -50 20 -64 0 -14 4
-27 9 -31 5 -3 17 -28 26 -55 l17 -50 203 0 203 0 -10 36 c-5 20 -8 38 -6 40
2 2 17 -8 33 -22 23 -19 35 -23 59 -18 34 7 76 32 76 44 0 12 192 177 226 195
16 8 43 15 60 15 71 0 135 50 100 76 -9 6 -16 25 -16 42 0 26 -5 33 -32 41
-100 30 -142 55 -153 91 -3 9 -17 23 -30 30 -17 9 -25 22 -25 40 0 38 -24 91
-52 116 -36 34 -89 57 -100 46 -11 -11 -58 5 -58 20 0 4 -8 8 -18 8 -30 0
-123 116 -143 180 -12 36 -36 70 -50 70 -5 0 -15 -15 -23 -32 -7 -18 -22 -43
-33 -55 l-19 -22 -11 32 c-6 18 -14 47 -18 66 -7 32 -8 33 -46 27 -104 -16
-124 -18 -109 -7 8 6 29 11 45 11 28 0 71 18 50 21 -36 4 -104 -1 -125 -9 -14
-5 -45 -13 -70 -18 -25 -4 -48 -9 -52 -10 -5 -1 -15 -2 -23 -3 -8 0 -15 -5
-15 -9 0 -4 17 -7 38 -5 35 2 36 2 7 -6 -47 -13 -97 -13 -89 1 5 8 -2 9 -23 5
-19 -4 -38 0 -52 9 -12 9 -30 13 -42 9 -18 -6 -20 -4 -15 13 6 17 3 19 -13 15
-11 -3 -28 0 -38 6 -16 9 -16 10 -1 11 9 0 24 7 33 16 14 15 17 14 35 -6 10
-12 23 -19 29 -16 5 3 17 -2 27 -11 12 -13 19 -14 22 -5 2 6 15 12 28 12 13 0
24 5 24 10 0 6 7 10 15 10 8 0 15 -5 15 -11 0 -5 5 -7 10 -4 6 4 7 11 4 17 -5
7 2 9 20 4 34 -8 51 1 36 19 -8 9 -7 14 2 17 22 7 201 2 238 -6 31 -8 33 -7
21 8 -16 19 -5 25 44 24 17 0 50 2 75 5 25 3 50 6 55 6 6 1 3 6 -5 11 -11 7
-4 10 28 10 27 0 42 -4 42 -12 1 -8 6 -6 14 5 16 21 71 24 63 3 -10 -27 119
-24 146 3 7 7 3 13 -14 20 -16 6 -18 10 -7 10 9 1 23 4 31 7 10 3 15 -1 14
-12 -1 -11 6 -19 18 -21 11 -1 14 0 8 3 -20 9 -15 24 7 24 11 0 20 -4 20 -10
0 -5 15 -13 33 -18 l32 -9 -50 -23 c-30 -14 -70 -24 -100 -24 -27 -1 -55 -4
-62 -9 -6 -4 -18 -5 -26 -1 -8 3 -43 -2 -78 -11 -35 -10 -95 -19 -134 -21 -38
-3 -86 -7 -105 -10 -19 -2 -45 -5 -57 -5 -13 -1 -23 -6 -23 -11 0 -12 13 -11
290 21 191 22 280 38 280 50 0 4 19 8 43 8 70 -1 117 12 110 28 -3 10 -20 15
-47 15 l-41 0 25 20 c14 11 37 20 53 20 24 0 32 9 28 33 -1 5 4 7 11 4 16 -5
48 10 48 23 0 6 -7 10 -16 10 -10 0 -14 7 -12 23 3 19 9 22 41 21 20 -1 37 2
37 7 0 11 -35 30 -44 24 -3 -3 0 2 7 11 15 16 107 29 107 15 0 -6 -12 -11 -27
-13 -19 -2 -27 -9 -28 -25 -2 -23 9 -31 19 -14 9 14 45 1 57 -20 9 -17 6 -19
-36 -19 -38 0 -45 -3 -45 -20 0 -11 -5 -20 -11 -20 -5 0 -7 -4 -4 -10 3 -5 -1
-10 -9 -10 -19 0 -21 -11 -4 -28 9 -9 14 -6 22 10 13 26 49 37 130 40 41 2 61
-1 64 -10 2 -6 9 -9 15 -5 8 4 8 1 -1 -9 -9 -11 -25 -14 -56 -12 -25 2 -48 -1
-51 -6 -4 -6 -15 -8 -25 -5 -19 6 -76 -12 -67 -21 3 -3 26 -7 50 -9 32 -2 47
2 51 11 6 15 36 20 36 6 0 -16 101 -3 145 18 l45 22 0 74 c0 64 -2 73 -17 67
-13 -5 -15 -2 -11 14 4 15 0 23 -14 26 -10 3 -18 11 -17 19 3 27 -1 38 -16 38
-8 0 -15 5 -15 10 0 6 12 9 28 7 18 -3 27 -10 26 -21 -1 -9 5 -16 13 -16 9 0
13 6 9 15 -3 8 -1 15 4 15 6 0 10 90 9 238 -1 130 -3 229 -6 219 -3 -12 -10
-16 -24 -12 -22 7 -24 2 -7 -25 7 -10 9 -23 5 -27 -5 -4 -12 -2 -16 6 -5 8
-19 10 -42 6 -28 -5 -36 -2 -47 15 -7 11 -10 25 -7 30 4 6 -5 10 -19 10 -14 0
-27 4 -30 9 -4 5 -25 12 -49 16 -23 4 -46 10 -52 14 -5 4 -19 6 -30 4z m179
-88 c3 -9 -1 -18 -10 -22 -19 -7 -26 0 -18 21 8 20 20 21 28 1z m-44 -9 c0 -3
-4 -8 -10 -11 -5 -3 -10 -1 -10 4 0 6 5 11 10 11 6 0 10 -2 10 -4z m-300 -27
c-6 -11 -19 -23 -28 -26 -23 -9 -33 -25 -26 -45 3 -12 0 -18 -10 -18 -26 0
-19 45 9 64 14 9 25 23 25 31 0 8 9 15 20 15 18 0 19 -3 10 -21z m360 -44 c0
-8 -2 -15 -4 -15 -2 0 -6 7 -10 15 -3 8 -1 15 4 15 6 0 10 -7 10 -15z m-492
-46 c-33 -29 -48 -35 -48 -21 0 12 64 61 73 55 5 -3 -6 -18 -25 -34z m142 -30
c0 -5 -4 -9 -10 -9 -5 0 -10 7 -10 16 0 8 5 12 10 9 6 -3 10 -10 10 -16z m-36
-74 c5 -19 3 -31 -6 -37 -10 -6 -7 -10 9 -14 18 -5 22 -11 17 -30 -5 -20 -2
-24 15 -24 24 0 27 -20 9 -50 -11 -17 -10 -22 2 -30 13 -8 13 -10 -2 -10 -24
0 -50 -30 -45 -51 6 -22 3 -24 -38 -33 l-30 -7 25 21 c22 17 23 20 6 20 -23 0
-56 28 -56 47 0 7 10 13 21 13 18 0 19 3 9 15 -23 28 -5 46 40 39 33 -5 40 -4
40 10 0 9 -5 16 -11 16 -5 0 -7 5 -4 10 3 6 2 10 -4 10 -5 0 -23 18 -41 40
-31 39 -31 40 -15 74 16 33 17 34 34 17 10 -10 21 -31 25 -46z m90 40 c18 0
14 -19 -9 -36 -17 -14 -24 -15 -38 -4 -14 10 -16 18 -7 40 9 24 12 25 27 14 8
-8 21 -14 27 -14z m-170 -56 c10 -28 15 -54 12 -57 -7 -7 -66 -5 -74 2 -3 3 0
16 5 28 l11 23 13 -28 c11 -25 14 -27 20 -10 4 10 1 25 -8 35 -12 14 -11 58 2
58 1 0 10 -23 19 -51z m-424 -14 c0 -9 -44 -23 -54 -17 -5 3 -1 9 10 13 23 9
44 11 44 4z m175 -47 c6 0 30 2 54 5 25 3 58 0 74 -5 l29 -11 -48 -28 c-34
-20 -52 -25 -61 -18 -6 6 -20 8 -31 5 -12 -4 -29 4 -50 22 -34 30 -33 47 2 36
12 -4 26 -7 31 -6z m-195 -8 c0 -13 -11 -13 -30 0 -12 8 -11 10 8 10 12 0 22
-4 22 -10z m20 -44 c0 -2 -7 -6 -15 -10 -8 -3 -15 -1 -15 4 0 6 7 10 15 10 8
0 15 -2 15 -4z m220 -81 c0 -8 -9 -15 -20 -15 -11 0 -20 7 -20 15 0 8 9 15 20
15 11 0 20 -7 20 -15z m730 -30 c0 -7 -6 -18 -14 -24 -11 -9 -15 -7 -19 11 -3
12 -4 25 -1 29 7 12 34 -1 34 -16z m40 -69 c0 -3 -4 -8 -10 -11 -5 -3 -10 -1
-10 4 0 6 5 11 10 11 6 0 10 -2 10 -4z m-70 -40 c0 -3 -4 -8 -10 -11 -5 -3
-10 -1 -10 4 0 6 5 11 10 11 6 0 10 -2 10 -4z m77 -6 c9 0 13 -3 9 -7 -10 -11
-76 -13 -76 -3 0 11 22 19 38 14 8 -2 21 -4 29 -4z m-415 -15 c-7 -19 -33 -60
-28 -43 3 11 -2 19 -15 23 -18 6 -24 17 -14 26 9 9 60 4 57 -6z m388 -45 c0
-5 -5 -10 -11 -10 -5 0 -7 5 -4 10 3 6 8 10 11 10 2 0 4 -4 4 -10z m-35 -19
c-3 -6 -11 -11 -17 -11 -6 0 -6 6 2 15 14 17 26 13 15 -4z m-917 -16 c38 3 24
-13 -15 -18 -42 -5 -67 8 -43 23 8 5 19 5 25 1 5 -5 20 -7 33 -6z m-548 -135
c0 -5 -7 -10 -15 -10 -8 0 -15 5 -15 10 0 6 7 10 15 10 8 0 15 -4 15 -10z
m190 -80 c-20 -13 -53 -13 -45 0 3 6 18 10 33 10 21 0 24 -2 12 -10z m8 -55
c-3 -3 -9 2 -12 12 -6 14 -5 15 5 6 7 -7 10 -15 7 -18z m303 -245 c5 0 9 4 9
9 0 9 47 8 53 0 29 -40 47 -60 51 -60 40 4 58 -11 62 -52 7 -59 -65 -123 -108
-95 -10 6 -10 10 -1 16 9 6 5 16 -15 37 -24 27 -27 28 -31 10 -2 -11 -7 -25
-12 -30 -4 -6 -7 -29 -5 -50 2 -33 6 -40 22 -38 10 1 14 0 8 -3 -6 -3 -9 -27
-7 -62 l4 -57 -20 40 c-11 22 -38 82 -59 133 l-39 93 22 54 c12 29 28 61 36
71 13 16 14 16 17 1 2 -10 8 -17 13 -17z m69 -304 c0 -8 -7 -19 -15 -26 -13
-11 -15 -9 -11 11 3 13 5 28 5 32 1 13 21 -3 21 -17z m-910 -231 c4 -11 11
-27 14 -35 3 -8 13 -25 22 -37 9 -13 12 -23 7 -23 -5 0 -15 11 -21 25 -6 14
-16 25 -21 25 -13 0 -31 58 -24 77 5 14 7 14 11 2 2 -7 7 -23 12 -34z m954
-10 c11 -8 27 -15 35 -15 15 0 61 -38 61 -51 0 -11 -69 -41 -81 -33 -11 6 -49
88 -49 105 0 13 12 11 34 -6z"/>
<path d="M8127 1860 c-20 -4 -41 -10 -45 -14 -10 -11 71 4 83 15 5 5 7 8 5 8
-3 -1 -22 -5 -43 -9z"/>
<path d="M8255 1860 c4 -6 11 -8 16 -5 14 9 11 15 -7 15 -8 0 -12 -5 -9 -10z"/>
<path d="M3599 1836 c-2 -3 -16 -7 -29 -9 -56 -11 -79 -19 -83 -31 -7 -18 14
-179 24 -191 6 -5 9 -1 9 11 0 11 4 24 9 30 8 8 43 115 45 138 1 6 12 20 26
33 14 12 20 23 14 23 -6 0 -13 -2 -15 -4z"/>
<path d="M8142 1819 c-13 -5 -20 -13 -17 -19 8 -13 18 -13 40 3 23 17 8 28
-23 16z"/>
<path d="M8245 1800 c-9 -15 -1 -23 21 -18 15 3 16 4 1 16 -11 9 -17 10 -22 2z"/>
<path d="M8195 1750 c4 -6 11 -8 16 -5 14 9 11 15 -7 15 -8 0 -12 -5 -9 -10z"/>
<path d="M7830 1730 c0 -5 5 -10 10 -10 6 0 10 5 10 10 0 6 -4 10 -10 10 -5 0
-10 -4 -10 -10z"/>
<path d="M7513 1723 c9 -2 23 -2 30 0 6 3 -1 5 -18 5 -16 0 -22 -2 -12 -5z"/>
<path d="M7835 1700 c-3 -5 -1 -10 4 -10 6 0 11 5 11 10 0 6 -2 10 -4 10 -3 0
-8 -4 -11 -10z"/>
<path d="M7591 1681 c-8 -6 -9 -11 -3 -15 6 -3 14 -1 17 5 9 14 2 20 -14 10z"/>
<path d="M7780 1679 c0 -5 5 -7 10 -4 6 3 10 8 10 11 0 2 -4 4 -10 4 -5 0 -10
-5 -10 -11z"/>
<path d="M7183 1663 c9 -2 23 -2 30 0 6 3 -1 5 -18 5 -16 0 -22 -2 -12 -5z"/>
<path d="M7810 1640 c0 -5 5 -10 10 -10 6 0 10 5 10 10 0 6 -4 10 -10 10 -5 0
-10 -4 -10 -10z"/>
<path d="M6440 1620 c-18 -12 -2 -12 25 0 13 6 15 9 5 9 -8 0 -22 -4 -30 -9z"/>
<path d="M7203 1623 c9 -2 25 -2 35 0 9 3 1 5 -18 5 -19 0 -27 -2 -17 -5z"/>
<path d="M7388 1623 c6 -2 18 -2 25 0 6 3 1 5 -13 5 -14 0 -19 -2 -12 -5z"/>
<path d="M7493 1623 c-12 -2 -27 -12 -35 -21 -7 -9 -8 -13 -2 -9 7 4 24 1 39
-7 22 -11 33 -12 54 -3 68 30 31 57 -56 40z"/>
<path d="M6788 1595 c5 -26 26 -32 52 -15 13 9 13 11 0 20 -10 6 -16 6 -18 0
-6 -16 -22 -12 -22 5 0 8 -4 15 -9 15 -4 0 -6 -11 -3 -25z"/>
<path d="M6883 1606 c-6 -8 -9 -17 -6 -20 11 -11 21 -6 26 14 6 23 -3 25 -20
6z"/>
<path d="M7278 1603 c-10 -2 -18 -9 -18 -14 0 -5 -9 -9 -20 -9 -11 0 -20 -5
-20 -11 0 -7 9 -9 23 -5 12 3 28 6 35 6 6 0 12 6 12 14 0 8 6 17 13 19 15 7
-2 6 -25 0z"/>
<path d="M4568 1593 c7 -3 16 -2 19 1 4 3 -2 6 -13 5 -11 0 -14 -3 -6 -6z"/>
<path d="M7746 1575 c4 -8 10 -15 15 -15 4 0 6 7 3 15 -4 8 -10 15 -15 15 -4
0 -6 -7 -3 -15z"/>
<path d="M7336 1565 l-29 -12 39 -5 c44 -6 66 5 38 20 -13 6 -29 5 -48 -3z"/>
<path d="M5860 1534 c8 -10 15 -20 16 -22 1 -2 5 1 8 7 4 5 -4 15 -16 22 -22
12 -22 11 -8 -7z"/>
<path d="M7225 1540 c-3 -5 1 -10 10 -10 9 0 13 5 10 10 -3 6 -8 10 -10 10 -2
0 -7 -4 -10 -10z"/>
<path d="M7592 1531 c-11 -7 -10 -10 3 -15 9 -3 24 -6 32 -6 13 0 13 3 3 15
-14 17 -20 18 -38 6z"/>
<path d="M7663 1528 c2 -7 -3 -18 -12 -25 -14 -11 -13 -12 7 -13 29 0 28 -14
-3 -34 -30 -19 -35 -20 -35 -3 0 8 -7 14 -15 14 -8 0 -15 -6 -15 -14 0 -7 7
-13 15 -13 8 0 15 -4 15 -10 0 -5 14 -10 30 -10 20 0 30 5 30 15 0 7 8 19 18
24 14 9 15 12 3 20 -9 6 -11 18 -7 35 5 22 3 26 -15 26 -12 0 -19 -5 -16 -12z"/>
<path d="M7214 1511 c-12 -13 12 -18 48 -9 58 13 59 17 3 15 -26 -1 -48 -4
-51 -6z"/>
<path d="M7117 1476 c-4 -10 -1 -13 8 -9 8 3 12 9 9 14 -7 12 -11 11 -17 -5z"/>
<path d="M7073 1433 c-13 -2 -23 -8 -23 -13 0 -4 -9 -10 -21 -13 -33 -9 -13
-25 28 -24 30 2 37 6 35 20 -2 9 2 17 8 17 5 0 10 5 10 10 0 6 -3 9 -7 9 -5
-1 -18 -4 -30 -6z"/>
<path d="M7956 1418 c-22 -31 -20 -47 4 -41 31 8 40 26 25 46 -12 17 -14 17
-29 -5z"/>
<path d="M6134 1419 c-3 -6 0 -15 7 -20 12 -7 11 -9 -1 -10 -8 -1 -19 -1 -25
1 -7 1 -7 -2 0 -9 7 -6 28 -5 65 5 30 8 78 16 105 19 28 2 52 4 55 5 3 0 -2 5
-10 9 -9 5 -40 5 -75 -1 -43 -8 -60 -8 -63 1 -5 14 -49 14 -58 0z"/>
<path d="M5600 1399 c0 -4 -8 -10 -17 -12 -10 -2 -5 -3 11 -1 16 2 41 4 57 4
45 0 34 15 -11 16 -22 1 -40 -2 -40 -7z"/>
<path d="M7737 1383 c-3 -3 1 -12 9 -21 11 -10 18 -12 26 -4 7 7 4 13 -10 21
-10 6 -22 8 -25 4z"/>
<path d="M7880 1375 c0 -8 5 -15 10 -15 6 0 10 7 10 15 0 8 -4 15 -10 15 -5 0
-10 -7 -10 -15z"/>
<path d="M7680 1370 c0 -5 7 -10 15 -10 8 0 15 5 15 10 0 6 -7 10 -15 10 -8 0
-15 -4 -15 -10z"/>
<path d="M6370 1360 c0 -5 5 -10 11 -10 5 0 7 5 4 10 -3 6 -8 10 -11 10 -2 0
-4 -4 -4 -10z"/>
<path d="M5560 1344 c0 -8 5 -12 10 -9 6 4 8 11 5 16 -9 14 -15 11 -15 -7z"/>
<path d="M5597 1353 c-16 -15 -5 -32 24 -38 34 -8 51 1 29 15 -8 6 -10 10 -5
10 13 0 -17 20 -31 20 -6 0 -14 -3 -17 -7z"/>
<path d="M5691 1351 c-10 -6 -9 -10 3 -14 8 -3 18 -2 21 3 8 13 -9 20 -24 11z"/>
<path d="M6265 1350 c3 -5 11 -10 16 -10 6 0 7 5 4 10 -3 6 -11 10 -16 10 -6
0 -7 -4 -4 -10z"/>
<path d="M6416 1335 c-4 -12 -11 -13 -31 -5 -20 8 -32 6 -48 -5 -12 -8 -16
-15 -8 -15 7 0 11 -6 8 -15 -4 -8 -2 -17 3 -20 6 -4 10 -12 10 -18 -1 -7 -10
-1 -22 13 -14 16 -22 21 -25 13 -3 -7 -13 -13 -23 -13 -10 0 -21 -7 -24 -16
-3 -8 -2 -12 3 -9 5 3 13 1 16 -5 4 -6 3 -9 -2 -8 -5 2 -19 -7 -33 -20 -18
-17 -21 -25 -12 -34 17 -17 15 -31 -3 -25 -17 7 -31 -11 -19 -23 5 -5 29 -11
54 -15 24 -4 52 -11 62 -16 14 -8 18 -6 18 9 0 11 6 25 14 31 12 10 16 8 21
-10 5 -14 2 -25 -6 -30 -10 -6 -8 -9 9 -9 19 0 22 -4 17 -21 -5 -15 -4 -19 4
-14 7 4 18 1 26 -5 10 -8 15 -9 15 -2 0 6 -6 15 -13 19 -8 4 -16 19 -20 31 -5
20 -2 23 14 19 14 -4 21 1 25 19 6 25 24 33 24 11 0 -7 12 -14 26 -15 25 -2
26 0 21 34 -5 30 -3 36 16 44 12 5 16 9 10 9 -7 1 -13 8 -13 16 0 8 -4 15 -10
15 -5 0 -10 6 -10 13 0 7 -7 22 -15 33 -14 18 -16 18 -28 2 -17 -21 -36 -24
-69 -10 -40 16 -36 33 4 21 18 -5 33 -9 34 -9 1 0 2 11 2 25 0 28 -13 33 -22
10z m60 -153 c-10 -10 -29 15 -21 28 6 9 10 8 17 -4 6 -10 7 -20 4 -24z m-191
-22 c3 -5 -3 -10 -15 -10 -12 0 -18 5 -15 10 3 6 10 10 15 10 5 0 12 -4 15
-10z"/>
<path d="M7712 1329 c2 -6 7 -10 11 -10 4 1 14 1 22 1 8 0 15 5 15 10 0 6 -12
10 -26 10 -14 0 -24 -5 -22 -11z"/>
<path d="M6250 1321 c0 -5 -13 -8 -29 -6 -22 3 -29 0 -25 -9 3 -9 19 -12 46
-10 50 4 52 6 28 22 -11 7 -20 8 -20 3z"/>
<path d="M5565 1292 c-22 -8 -27 -33 -7 -45 15 -10 34 1 29 16 -2 7 3 17 12
24 14 11 14 12 1 12 -8 -1 -24 -4 -35 -7z"/>
<path d="M7620 1286 c0 -9 7 -16 16 -16 9 0 14 5 12 12 -6 18 -28 21 -28 4z"/>
<path d="M7865 1290 c-3 -5 3 -10 15 -10 12 0 18 5 15 10 -3 6 -10 10 -15 10
-5 0 -12 -4 -15 -10z"/>
<path d="M6560 1280 c20 -13 40 -13 40 0 0 6 -12 10 -27 10 -22 0 -25 -2 -13
-10z"/>
<path d="M7676 1278 c3 -4 0 -8 -6 -8 -6 0 -9 -4 -6 -9 8 -13 46 -1 46 15 0 7
-9 12 -19 11 -11 0 -17 -5 -15 -9z"/>
<path d="M7788 1278 c17 -8 26 -8 34 0 9 9 4 12 -22 11 -33 0 -34 -1 -12 -11z"/>
<path d="M6547 1262 c-5 -7 -2 -18 7 -27 16 -17 61 -21 51 -5 -3 6 -15 10 -25
10 -10 0 -20 8 -22 18 -3 12 -6 14 -11 4z"/>
<path d="M7865 1260 c-3 -5 -1 -10 4 -10 6 0 11 5 11 10 0 6 -2 10 -4 10 -3 0
-8 -4 -11 -10z"/>
<path d="M8590 1260 c0 -5 5 -10 10 -10 6 0 10 5 10 10 0 6 -4 10 -10 10 -5 0
-10 -4 -10 -10z"/>
<path d="M5743 1252 c-47 -3 -48 -4 -32 -33 9 -17 13 -18 26 -7 9 7 27 18 42
24 33 13 18 20 -36 16z"/>
<path d="M5372 1241 c-11 -7 -11 -9 2 -14 10 -4 16 -1 16 8 0 17 -1 17 -18 6z"/>
<path d="M5915 1230 c3 -5 8 -10 11 -10 2 0 4 5 4 10 0 6 -5 10 -11 10 -5 0
-7 -4 -4 -10z"/>
<path d="M7388 1233 c-22 -5 -22 -10 -4 -29 19 -18 26 -18 42 4 24 31 12 38
-38 25z"/>
<path d="M5655 1220 c3 -5 8 -10 11 -10 2 0 4 5 4 10 0 6 -5 10 -11 10 -5 0
-7 -4 -4 -10z"/>
<path d="M7255 1223 c-62 -6 -75 -15 -35 -24 19 -4 42 -3 52 2 9 5 30 9 47 9
17 0 31 5 31 10 0 10 -15 10 -95 3z"/>
<path d="M4150 1210 c-12 -8 -12 -10 5 -9 11 0 29 4 40 9 18 8 18 9 -5 9 -14
0 -32 -4 -40 -9z"/>
<path d="M5617 1204 c3 -7 9 -14 14 -14 14 0 10 17 -5 23 -10 4 -13 1 -9 -9z"/>
<path d="M5752 1208 c3 -7 22 -15 44 -18 21 -3 46 -10 54 -15 13 -8 13 -7 1 8
-7 9 -21 17 -30 18 -12 0 -11 2 4 9 15 6 8 9 -28 9 -35 1 -47 -3 -45 -11z"/>
<path d="M8655 1209 c-4 -5 -13 -8 -21 -5 -7 3 -16 1 -19 -4 -7 -12 21 -12 49
-1 13 5 16 10 9 14 -7 4 -15 2 -18 -4z"/>
<path d="M4093 1203 c9 -2 23 -2 30 0 6 3 -1 5 -18 5 -16 0 -22 -2 -12 -5z"/>
<path d="M6580 1189 c0 -5 5 -7 10 -4 6 3 10 8 10 11 0 2 -4 4 -10 4 -5 0 -10
-5 -10 -11z"/>
<path d="M4970 1153 c0 -26 15 -31 24 -7 9 24 7 31 -9 31 -9 0 -15 -10 -15
-24z"/>
<path d="M5965 1170 c-3 -5 -1 -10 4 -10 6 0 11 5 11 10 0 6 -2 10 -4 10 -3 0
-8 -4 -11 -10z"/>
<path d="M5021 1157 c-1 -25 17 -57 32 -57 9 0 9 2 -1 9 -7 4 -17 21 -22 37
-5 17 -9 21 -9 11z"/>
<path d="M5625 1160 c3 -5 8 -10 11 -10 2 0 4 5 4 10 0 6 -5 10 -11 10 -5 0
-7 -4 -4 -10z"/>
<path d="M6066 1151 c-3 -5 1 -11 9 -15 8 -3 15 -1 15 4 0 13 -18 22 -24 11z"/>
<path d="M6020 1141 c0 -6 4 -13 10 -16 6 -3 7 1 4 9 -7 18 -14 21 -14 7z"/>
<path d="M7976 1140 c6 -6 21 -6 39 -1 30 9 30 9 -9 10 -26 1 -37 -2 -30 -9z"/>
<path d="M5904 1118 c-3 -4 4 -8 15 -8 12 0 21 4 21 8 0 5 -7 9 -15 9 -9 0
-18 -4 -21 -9z"/>
<path d="M5250 1080 c0 -15 -4 -19 -12 -13 -7 4 -26 9 -43 9 -16 1 -39 4 -50
7 -11 2 -23 -1 -27 -7 -6 -8 -11 -7 -17 2 -6 11 -10 9 -14 -7 -3 -12 -1 -22 4
-22 5 -1 14 -3 19 -4 6 -1 23 -3 38 -4 25 -1 29 -5 27 -30 -2 -28 0 -29 42
-28 23 1 43 7 43 12 0 6 26 9 65 8 63 -2 84 8 48 22 -16 6 -15 8 6 20 14 7 31
11 38 8 15 -6 18 13 3 22 -6 4 -8 9 -6 13 2 4 -34 8 -80 10 -79 2 -84 1 -84
-18z"/>
<path d="M7084 1085 c21 -16 32 -13 21 4 -3 6 -14 11 -23 11 -15 -1 -15 -2 2
-15z"/>
<path d="M5040 1080 c0 -5 5 -10 10 -10 6 0 10 5 10 10 0 6 -4 10 -10 10 -5 0
-10 -4 -10 -10z"/>
<path d="M5490 1069 c0 -5 5 -7 10 -4 6 3 10 8 10 11 0 2 -4 4 -10 4 -5 0 -10
-5 -10 -11z"/>
<path d="M5785 1070 c-3 -5 3 -10 14 -10 12 0 21 5 21 10 0 6 -6 10 -14 10 -8
0 -18 -4 -21 -10z"/>
<path d="M6655 1052 c-8 -21 -6 -25 9 -19 7 3 18 1 23 -4 9 -9 93 19 93 31 0
3 -27 5 -60 6 -42 0 -61 -4 -65 -14z"/>
<path d="M5690 1054 c1 -24 19 -36 45 -30 16 4 24 11 19 16 -13 13 -64 24 -64
14z"/>
<path d="M7900 1025 c0 -23 2 -24 20 -15 11 6 20 17 20 25 0 8 -9 15 -20 15
-15 0 -20 -7 -20 -25z"/>
<path d="M5110 1020 c0 -5 4 -10 9 -10 6 0 13 5 16 10 3 6 -1 10 -9 10 -9 0
-16 -4 -16 -10z"/>
<path d="M5455 1020 c-3 -5 1 -10 9 -10 9 0 16 5 16 10 0 6 -4 10 -9 10 -6 0
-13 -4 -16 -10z"/>
<path d="M6440 1020 c-8 -5 -25 -10 -37 -10 -13 0 -23 -5 -23 -11 0 -5 4 -8 9
-4 5 3 21 0 34 -6 18 -8 30 -8 46 1 17 8 26 9 36 0 11 -9 14 -8 12 7 -1 15 -7
18 -24 15 -13 -2 -23 1 -23 7 0 13 -10 14 -30 1z"/>
<path d="M7145 1020 c-4 -6 7 -10 25 -10 18 0 29 4 25 10 -3 6 -15 10 -25 10
-10 0 -22 -4 -25 -10z"/>
<path d="M5958 1013 c6 -2 18 -2 25 0 6 3 1 5 -13 5 -14 0 -19 -2 -12 -5z"/>
<path d="M4408 993 c-10 -2 -18 -12 -17 -21 0 -11 2 -12 6 -4 2 6 11 12 19 12
8 0 14 5 14 10 0 6 -1 9 -2 9 -2 -1 -11 -3 -20 -6z"/>
<path d="M4996 991 c-3 -5 1 -12 10 -15 25 -10 34 -7 28 9 -7 17 -30 20 -38 6z"/>
<path d="M6008 963 c7 -3 16 -2 19 1 4 3 -2 6 -13 5 -11 0 -14 -3 -6 -6z"/>
<path d="M4985 940 c-3 -5 -2 -10 4 -10 5 0 13 5 16 10 3 6 2 10 -4 10 -5 0
-13 -4 -16 -10z"/>
<path d="M5164 934 c3 -9 6 -22 6 -30 0 -8 8 -14 18 -13 10 0 12 3 5 6 -7 2
-13 16 -13 29 0 13 -5 24 -11 24 -6 0 -8 -7 -5 -16z"/>
<path d="M5250 940 c0 -5 -14 -10 -30 -10 -27 0 -29 -2 -18 -19 12 -20 41 -29
70 -23 16 3 16 5 3 19 -12 12 -13 18 -4 29 9 11 8 14 -5 14 -9 0 -16 -4 -16
-10z m0 -30 c0 -5 -4 -10 -10 -10 -5 0 -10 5 -10 10 0 6 5 10 10 10 6 0 10 -4
10 -10z"/>
<path d="M5330 939 c0 -5 5 -7 10 -4 6 3 10 8 10 11 0 2 -4 4 -10 4 -5 0 -10
-5 -10 -11z"/>
<path d="M6120 930 c0 -5 5 -10 11 -10 5 0 7 5 4 10 -3 6 -8 10 -11 10 -2 0
-4 -4 -4 -10z"/>
<path d="M6387 923 c20 -15 52 -16 73 -3 16 11 11 12 -58 14 -28 1 -30 -1 -15
-11z"/>
<path d="M5301 910 c-1 -15 -5 -30 -11 -36 -7 -7 3 -8 28 -5 20 3 29 6 20 8
-9 3 -21 16 -27 31 l-9 27 -1 -25z"/>
<path d="M6308 923 c6 -2 18 -2 25 0 6 3 1 5 -13 5 -14 0 -19 -2 -12 -5z"/>
<path d="M6720 905 c0 -8 2 -15 4 -15 2 0 6 7 10 15 3 8 1 15 -4 15 -6 0 -10
-7 -10 -15z"/>
<path d="M6435 893 c-22 -2 -71 -8 -108 -14 -58 -9 -67 -14 -61 -28 12 -28 17
-81 7 -81 -6 0 -18 9 -28 20 -10 11 -26 22 -37 26 -11 3 -17 12 -14 20 4 11
-5 14 -38 14 -49 0 -57 -10 -45 -54 11 -39 1 -52 -22 -27 -11 12 -26 21 -33
21 -19 0 -29 32 -14 43 8 5 -136 5 -362 1 -394 -9 -559 -8 -598 1 -37 9 -24
-7 62 -76 129 -105 127 -103 89 -84 -18 8 -71 49 -119 90 -82 72 -87 75 -137
75 -60 0 -67 10 83 -116 58 -48 122 -103 142 -122 67 -62 220 -172 239 -172
22 0 99 -73 99 -93 0 -22 201 -208 324 -300 l49 -37 318 0 c177 0 319 4 319 9
0 5 -7 14 -15 21 -8 6 -26 33 -41 58 -15 26 -47 69 -71 96 -23 26 -43 52 -43
57 0 5 -47 57 -104 117 -58 59 -115 120 -128 137 -45 57 -107 149 -103 153 4
5 60 -52 130 -133 31 -36 41 -42 47 -30 12 20 -4 47 -36 65 -15 7 -29 24 -32
37 -4 12 -10 20 -15 17 -15 -9 -21 23 -9 46 10 18 8 24 -7 35 -10 7 -15 17
-11 21 10 9 58 -37 58 -57 0 -10 11 -19 25 -21 21 -5 25 -2 20 13 -5 15 -1 19
19 19 14 0 28 -4 31 -10 3 -5 17 -10 30 -10 13 0 25 -4 27 -8 2 -4 18 -18 36
-31 32 -22 43 -51 19 -51 -17 0 -39 -37 -27 -45 6 -3 10 -2 10 3 0 15 38 21
53 8 8 -6 20 -26 27 -44 11 -29 11 -35 -1 -43 -8 -5 -9 -9 -3 -9 6 0 23 -27
38 -60 26 -55 47 -73 60 -51 12 19 16 80 6 86 -5 3 -10 10 -10 15 0 5 24 -2
53 -14 28 -13 60 -26 70 -29 32 -11 19 -29 -15 -22 l-33 6 42 -39 c43 -41 112
-162 92 -162 -9 0 3 -19 52 -78 16 -19 4 -26 -21 -12 -37 20 -32 5 9 -28 35
-28 47 -32 101 -32 l62 0 -38 53 c-21 28 -45 57 -52 62 -7 6 -17 30 -23 53 -5
24 -14 49 -19 55 -34 39 -100 134 -100 143 0 21 -22 33 -40 22 -20 -13 -33 -6
-89 45 -23 21 -39 42 -36 47 3 5 -6 21 -20 36 -20 21 -23 30 -13 37 9 6 7 7
-6 3 -12 -4 -24 0 -32 11 -15 21 -18 37 -5 29 5 -4 12 0 14 6 3 7 6 3 6 -9 1
-14 7 -23 16 -23 9 0 32 -16 51 -36 20 -19 38 -33 41 -30 3 2 0 21 -7 41 -7
20 -9 39 -6 42 3 3 8 -3 11 -13 4 -10 11 -27 16 -36 5 -10 10 -26 10 -35 1
-10 5 4 11 31 8 44 6 52 -17 87 -25 39 -33 65 -16 55 5 -4 7 3 4 14 -3 11 -9
23 -14 26 -5 3 -9 15 -9 28 0 12 -4 26 -9 32 -14 14 -23 54 -13 54 5 0 21 -25
37 -55 15 -31 30 -54 32 -51 3 2 0 13 -6 24 -6 11 -9 27 -6 34 3 8 -3 23 -15
33 -29 26 -25 38 7 18 15 -10 29 -16 32 -13 3 3 11 -13 17 -35 12 -40 12 -40
13 -8 1 25 -7 38 -39 63 -22 17 -40 38 -40 46 0 14 -49 16 -155 7z m65 -47 c0
-8 3 -23 6 -33 6 -16 5 -16 -9 2 -19 23 -22 45 -7 45 6 0 10 -6 10 -14z
m-1120 -343 c0 -9 -112 83 -120 98 -20 37 -8 30 55 -32 36 -35 65 -65 65 -66z
m174 4 c17 -16 4 -8 -30 17 -33 25 -67 53 -75 63 -14 18 49 -31 105 -80z m82
-229 c17 -18 46 -44 65 -58 45 -34 88 -73 69 -64 -21 10 -142 108 -165 133
-30 34 -2 24 31 -11z m174 -143 c7 -9 8 -15 2 -15 -5 0 -12 7 -16 15 -3 8 -4
15 -2 15 2 0 9 -7 16 -15z"/>
<path d="M5220 861 c0 -4 11 -6 25 -3 14 2 25 6 25 8 0 2 -11 4 -25 4 -14 0
-25 -4 -25 -9z"/>
<path d="M8739 833 c-28 -17 -59 -65 -59 -93 0 -10 7 -31 15 -46 33 -63 30
-90 -14 -156 -62 -92 -55 -112 30 -87 28 9 41 20 50 43 6 17 21 50 32 73 18
37 19 48 9 81 -7 22 -12 62 -12 90 0 28 -4 53 -9 56 -5 3 -7 15 -4 25 7 26 -8
32 -38 14z"/>
<path d="M4210 830 c-13 -8 -12 -10 3 -10 9 0 17 5 17 10 0 12 -1 12 -20 0z"/>
<path d="M4050 809 c0 -13 36 -20 76 -13 68 10 65 19 -7 20 -38 0 -69 -3 -69
-7z"/>
<path d="M4560 794 c0 -21 34 -64 51 -64 26 0 36 28 16 47 -15 15 -67 28 -67
17z"/>
<path d="M6785 680 c4 -14 24 -50 45 -80 20 -31 39 -64 43 -74 4 -11 10 -16
13 -14 6 7 -60 132 -89 168 l-19 25 7 -25z"/>
<path d="M17 653 c-4 -3 -7 -29 -6 -57 1 -46 2 -48 11 -23 5 15 14 27 19 27 5
0 9 14 9 30 0 28 -17 40 -33 23z"/>
<path d="M6260 601 c0 -5 5 -13 10 -16 6 -3 10 -2 10 4 0 5 -4 13 -10 16 -5 3
-10 2 -10 -4z"/>
<path d="M4212 546 c-19 -5 -41 -20 -49 -33 -25 -39 -105 -73 -196 -84 -99
-13 -196 2 -327 50 l-85 31 -20 -21 c-19 -19 -19 -20 -1 -13 12 5 17 4 13 -3
-6 -10 77 -92 140 -139 l28 -21 75 23 c97 31 185 32 243 3 23 -12 44 -25 47
-28 14 -18 109 -91 118 -91 6 0 20 12 32 28 18 22 30 27 68 27 42 0 47 3 50
23 2 16 8 22 18 18 23 -9 16 10 -8 21 -25 12 -21 15 37 28 l30 7 -35 13 c-52
20 -70 18 -70 -5 0 -13 -7 -20 -20 -20 -26 0 -25 8 9 61 38 60 48 115 24 128
-22 11 -77 10 -121 -3z"/>
<path d="M6650 551 c0 -5 7 -15 17 -22 15 -13 15 -12 4 9 -12 23 -21 28 -21
13z"/>
<path d="M6590 475 c-7 -8 -9 -15 -4 -15 5 0 19 -3 32 -6 27 -8 30 11 3 25
-14 8 -22 7 -31 -4z"/>
<path d="M6921 450 c12 -22 24 -38 26 -36 4 4 -37 76 -44 76 -2 0 6 -18 18
-40z"/>
<path d="M8971 154 c-19 -13 -42 -24 -51 -24 -23 0 -36 -18 -45 -60 -3 -19 -9
-43 -11 -52 -5 -16 3 -18 75 -18 l81 0 0 90 c0 50 -3 90 -7 89 -5 0 -23 -12
-42 -25z"/>
<path d="M3741 83 c-7 -27 -14 -56 -17 -65 -5 -17 7 -18 160 -18 91 0 166 3
166 6 0 10 -45 50 -64 57 -9 4 -16 13 -16 20 0 34 -34 47 -127 47 l-91 0 -11
-47z"/>
</g>
</svg>
